<svg width="45" height="63" viewBox="0 0 45 63" fill="none" xmlns="http://www.w3.org/2000/svg">
<path d="M13.3874 2.67102C11.889 4.23462 10.6511 5.01642 9.41329 5.01642C7.13304 5.01642 4.46188 7.68757 4.46188 9.96783C4.46188 11.2057 3.68008 12.4435 2.11648 13.942C-0.033473 15.8965 -0.228923 16.2874 0.161977 18.5025C0.748328 21.6297 0.748328 23.5842 0.161977 26.7114C-0.228923 28.9265 -0.033473 29.3174 2.11648 31.2719C3.68008 32.7704 4.46188 34.0082 4.46188 35.2461C4.46188 36.2885 5.17854 37.7218 6.15579 38.699L7.84969 40.3929L4.46188 47.7549C2.57253 51.7942 1.26953 55.3774 1.53013 55.7683C1.72558 56.1592 3.94068 56.485 6.41639 56.485H10.8466L13.5829 59.7425C15.0814 61.5015 16.5798 63 16.9707 63C17.2965 63 18.5343 60.9152 19.6419 58.4395C20.7494 55.8986 21.857 53.879 22.0524 53.879C22.313 53.879 23.4206 55.8986 24.5281 58.4395C25.6357 60.9152 26.8084 63 27.1341 63C27.525 63 29.0235 61.5015 30.5219 59.7425L33.2582 56.485H37.6884C40.2293 56.485 42.3792 56.1592 42.6398 55.7683C42.8353 55.3774 41.5323 51.7942 39.6429 47.6897L36.2551 40.3929L37.949 38.699C38.9263 37.7218 39.6429 36.2885 39.6429 35.2461C39.6429 34.0082 40.4247 32.7704 41.9883 31.2719C44.1383 29.3174 44.3337 28.9265 43.9428 26.7114C43.3565 23.5842 43.3565 21.6297 43.9428 18.5025C44.3337 16.2874 44.1383 15.8965 41.9883 13.942C40.4247 12.4435 39.6429 11.2057 39.6429 9.96783C39.6429 7.68757 36.9718 5.01642 34.6915 5.01642C33.4537 5.01642 32.2158 4.23462 30.7174 2.67102C28.7629 0.521065 28.372 0.325615 26.1569 0.716515C24.7887 0.977116 22.9645 1.17257 22.0524 1.17257C21.1403 1.17257 19.3161 0.977116 17.948 0.716515C15.7329 0.325615 15.342 0.521065 13.3874 2.67102ZM19.8373 3.84372C21.5312 4.43007 22.5085 4.43007 24.6584 3.71342C27.3296 2.80132 27.3947 2.86647 29.2841 4.88612C30.3916 6.05882 32.0204 7.10122 32.9976 7.36182C36.7112 8.14362 36.5157 7.94817 37.2975 11.6617C37.5581 12.639 38.6005 14.2677 39.7732 15.3753C41.7929 17.2646 41.7929 17.3298 40.9459 19.9358C40.2293 22.1509 40.2293 23.063 40.9459 25.2781C41.7929 27.8841 41.7929 27.9493 39.7732 29.8386C38.6005 30.9462 37.5581 32.5749 37.2975 33.5522C36.5157 37.2657 36.7112 37.0703 32.9976 37.8521C32.0204 38.1127 30.3916 39.1551 29.2841 40.3278C27.3947 42.3474 27.3296 42.3474 24.7236 41.5005C22.5085 40.7838 21.5964 40.7838 19.3813 41.5005C16.7753 42.3474 16.7101 42.3474 14.8208 40.3278C13.7132 39.1551 12.0844 38.1127 11.1072 37.8521C7.39364 37.0703 7.58909 37.2657 6.80729 33.5522C6.54669 32.5749 5.50429 30.9462 4.33158 29.8386C2.31193 27.9493 2.31193 27.8841 3.15888 25.2781C3.87553 23.063 3.87553 22.1509 3.15888 19.9358C2.31193 17.3298 2.31193 17.2646 4.33158 15.3753C5.50429 14.2677 6.54669 12.639 6.80729 11.6617C7.58909 7.94817 7.39364 8.14362 11.1723 7.36182C12.1496 7.10122 13.7132 6.05882 14.6905 5.01642C16.645 2.80132 16.9056 2.73617 19.8373 3.84372ZM17.6222 44.5625C18.7949 44.3671 20.6191 43.9762 21.5964 43.7156L23.4206 43.2595L22.5085 45.4746C21.9873 46.7125 20.4237 50.2957 19.0555 53.4229L16.645 59.1561L14.2996 56.5501C12.1496 54.1396 11.6284 53.879 8.30574 53.7487L4.65733 53.5532L7.84969 46.7776L11.042 40.002L13.2571 42.4126C15.2117 44.5625 15.798 44.8231 17.6222 44.5625ZM36.3854 46.8428L39.5126 53.5532L35.8642 53.7487C32.4113 53.879 31.9552 54.1396 29.8704 56.5501L27.5902 59.2213L25.5705 54.4002C23.6812 49.9048 23.6812 49.5139 24.5281 47.1685C25.3099 45.2792 25.8311 44.758 27.1341 44.758C28.1765 44.758 29.4795 43.911 30.7825 42.4777C31.8901 41.2399 32.8673 40.1975 32.9976 40.1975C33.1279 40.1975 34.6264 43.1944 36.3854 46.8428Z" fill="#0079C1"/>
<path d="M26.3522 21.6949C23.5508 26.1251 20.9448 29.7735 20.619 29.7735C20.2281 29.7735 18.2085 28.1448 16.0585 26.1903C12.4101 22.8025 10.9768 22.2161 10.9768 24.1706C10.9768 24.6267 13.3222 27.1024 16.1888 29.7084L21.3357 34.3992L22.8993 31.8583C23.8114 30.4902 26.4174 26.4509 28.6976 22.9328C30.9779 19.3495 33.0627 16.092 33.3233 15.6359C33.5839 15.1799 33.3233 14.5935 32.6718 14.2026C31.6294 13.6814 30.7824 14.7238 26.3522 21.6949Z" fill="#0079C1"/>
</svg>
