<svg width="64" height="56" viewBox="0 0 64 56" fill="none" xmlns="http://www.w3.org/2000/svg">
<path d="M25.1282 2.20107C14.803 7.58537 15.3731 22.218 26.1417 27.0955C37.1637 32.1631 49.3258 19.9376 44.2583 8.97895C40.7743 1.31425 32.4128 -1.59961 25.1282 2.20107ZM36.5936 4.35479C44.9551 8.59889 44.9551 20.1276 36.5936 24.3717C33.0463 26.1454 30.0057 26.1454 26.4584 24.3084C18.0969 20.1276 18.0969 8.59889 26.4584 4.35479C27.9787 3.59466 30.2591 2.96121 31.526 2.96121C32.7929 2.96121 35.0733 3.59466 36.5936 4.35479Z" fill="#0079C1"/>
<path d="M30.2589 6.63514C30.2589 7.20524 29.6255 8.02872 28.8653 8.34545C27.7885 8.78886 27.3451 9.61234 27.2184 11.2593C27.0284 13.8564 27.6618 14.6166 31.2724 15.7568C33.0461 16.3269 33.7429 16.9603 33.7429 17.8471C33.7429 19.7475 29.6888 20.0642 29.1821 18.2272C28.802 16.7703 26.4583 16.3269 26.4583 17.7205C26.4583 18.9874 28.3586 21.3311 29.3721 21.3311C29.8789 21.3311 30.2589 21.7745 30.2589 22.2813C30.2589 22.788 30.829 23.2314 31.5258 23.2314C32.2226 23.2314 32.7927 22.788 32.7927 22.2813C32.7927 21.7745 33.1728 21.3311 33.6162 21.3311C34.8831 21.3311 36.5934 19.2407 36.5934 17.6571C36.5934 15.8835 35.0731 14.4899 32.1593 13.7297C29.3721 12.9696 28.802 12.3995 29.3721 10.9426C29.8789 9.67569 33.1728 9.61234 33.6795 10.8792C34.123 12.0828 35.96 12.1461 35.96 10.9426C35.96 9.92906 34.313 8.02872 33.3628 8.02872C33.0461 8.02872 32.7927 7.45862 32.7927 6.76183C32.7927 5.93835 32.3493 5.49494 31.5258 5.49494C30.7657 5.49494 30.2589 5.93835 30.2589 6.63514Z" fill="#0079C1"/>
<path d="M10.9388 29.5027C6.25133 31.2763 0.550307 34.0001 0.106894 34.7603C-0.0831399 35.077 -0.0197952 35.6471 0.296928 35.9638C0.676996 36.3439 3.40082 35.5204 7.51822 33.6834C16.5132 29.8194 21.2007 29.9461 25.128 34.1902C26.9017 36.1539 31.2091 37.6741 36.6568 38.3076C39.3806 38.6243 40.7742 39.0677 41.2809 39.8912C42.5478 41.8549 40.6475 42.2983 32.476 41.9816C28.2953 41.7915 24.1779 41.5382 23.291 41.4748C22.2142 41.3481 21.7074 41.6015 21.7074 42.235C21.7074 43.8186 27.2818 44.8321 34.6931 44.6421L41.3443 44.452L47.9955 39.9545C55.7235 34.6969 56.9904 34.0001 58.7007 34.0001C60.7911 34.0001 60.9178 35.3304 59.0174 37.1674C55.8502 40.2713 34.5664 53.637 32.7927 53.637C31.9059 53.637 27.3451 51.8 22.6576 49.5196C16.8299 46.6691 13.7893 45.5289 12.9025 45.7823C10.6855 46.479 6.82143 49.3296 6.82143 50.2164C6.82143 51.4833 8.53173 51.2932 10.4954 49.8997C11.4456 49.2662 12.6491 48.6328 13.1559 48.4427C13.6627 48.2527 17.8434 49.963 22.3409 52.1801C32.7927 57.3743 33.3628 57.3743 42.4211 51.5466C54.9634 43.5018 61.6146 38.751 62.5647 36.9773C63.3882 35.4571 63.3882 35.077 62.5647 33.4934C61.6779 32.0365 61.1712 31.7831 58.574 31.7197C56.6737 31.6564 55.1534 31.2763 54.3299 30.5162C53.4431 29.6927 52.4929 29.5027 50.7826 29.7561C49.2624 30.0094 47.9955 29.8194 46.9819 29.1226C44.8282 27.729 42.1044 28.4258 36.7201 31.7831C34.1863 33.3667 31.5892 34.6336 30.9557 34.6336C30.3223 34.6336 28.3586 33.4934 26.7117 32.0998C21.8975 28.1091 16.8932 27.2856 10.9388 29.5027ZM45.4617 31.4664C45.4617 32.6066 39.8873 35.9005 37.8603 35.9005C35.3265 35.9005 35.8333 35.077 39.9507 32.7333C43.2446 30.8329 45.4617 30.3262 45.4617 31.4664ZM53.063 32.7333C53.063 33.05 51.036 34.6969 48.5656 36.3439C44.9549 38.751 44.0047 39.1311 43.498 38.3709C42.6112 36.914 42.7379 36.724 46.5385 34.3802C50.0225 32.1632 53.063 31.403 53.063 32.7333Z" fill="#0079C1"/>
</svg>
