<svg width="58" height="58" viewBox="0 0 58 58" fill="none" xmlns="http://www.w3.org/2000/svg">
<path d="M33.3164 0.985485C29.0287 1.79667 25.6681 3.2452 24.3355 4.86757C23.2925 6.20023 23.1766 7.24318 23.1766 13.385V20.3959L16.6292 20.4539C8.923 20.5118 4.11385 21.6706 1.68031 24.1621L0 25.7845V39.2269V52.6694L1.68031 54.2917C4.28768 56.8991 8.923 58 17.3825 58C25.8419 58 30.4773 56.8991 33.0846 54.2917C34.5332 52.9011 34.7649 52.1479 34.7649 49.5405V46.4696L41.3123 46.4117C49.0186 46.3537 53.8277 45.1949 56.2613 42.7034L57.9416 41.0811V23.5827V6.08434L56.3192 4.46198C55.3922 3.59285 53.2483 2.37608 51.5101 1.85461C47.8018 0.753716 37.4303 0.232243 33.3164 0.985485ZM50.7568 4.11433C52.3792 4.6358 54.1754 5.56287 54.7548 6.20023C55.7398 7.30112 55.7398 7.417 54.7548 8.51789C51.1045 12.5159 32.3314 12.9794 27.2325 9.15525C25.3784 7.82259 25.3784 6.89552 27.2325 5.50492C30.8829 2.83961 43.9197 2.02843 50.7568 4.11433ZM35.2864 13.9065C41.5441 14.6597 49.8298 13.8485 53.3642 12.1103L55.6239 11.0094V13.4429C55.6239 15.1232 55.2763 16.1662 54.523 16.8615C51.5101 19.5847 40.3273 20.8594 33.0267 19.295C27.2325 18.0783 25.8419 16.9774 25.6102 13.5588L25.4364 10.9514L27.6961 12.1103C28.9708 12.6897 32.3893 13.5009 35.2864 13.9065ZM35.2864 22.0183C41.5441 22.7715 49.8298 21.9603 53.3642 20.2221L55.6239 19.1212V21.5547C55.6239 24.5098 54.523 25.6107 50.583 26.8274C47.3383 27.8124 38.5312 28.5657 36.2714 27.9863C35.4602 27.8124 34.7649 27.233 34.7649 26.7695C34.7649 25.2051 32.0996 22.8874 28.9708 21.8445C27.2325 21.265 25.7261 20.3959 25.6102 19.9324C25.4364 19.2371 25.8999 19.295 27.6961 20.2221C28.9708 20.8015 32.3893 21.6127 35.2864 22.0183ZM27.5802 23.8145C29.2026 24.3359 30.9987 25.263 31.5782 25.9004C32.5632 27.0013 32.5632 27.1171 31.5782 28.218C27.9278 32.216 9.15477 32.6795 4.05591 28.8554C2.20178 27.5227 2.20178 26.5957 4.05591 25.2051C7.70623 22.5398 20.7431 21.7286 27.5802 23.8145ZM54.6969 32.9113C54.1174 33.5487 52.3792 34.4178 50.7568 34.9393C47.3383 35.9243 38.5312 36.6775 36.2714 36.0981C34.9388 35.7504 34.7649 35.4607 34.7649 32.9692V30.246L38.8209 30.4198C43.688 30.6516 50.5251 29.6666 53.3063 28.3339L55.3342 27.3489L55.508 29.6086C55.6239 31.0572 55.3922 32.1581 54.6969 32.9113ZM12.1098 33.6066C18.3675 34.3598 26.6531 33.5487 30.1876 31.8104L32.4473 30.7095V33.1431C32.4473 34.8234 32.0996 35.8663 31.3464 36.5616C28.3334 39.2849 17.1507 40.5596 9.85007 38.9952C4.05591 37.7784 2.66531 36.6775 2.43355 33.2589L2.25972 30.6516L4.51944 31.8104C5.79416 32.3898 9.21271 33.201 12.1098 33.6066ZM54.6969 41.0231C54.1174 41.6605 52.3792 42.5296 50.7568 43.0511C47.3383 44.0361 38.5312 44.7893 36.2714 44.2099C34.9388 43.8623 34.7649 43.5725 34.7649 41.0811V38.3578L38.8209 38.5316C43.688 38.7634 50.5251 37.7784 53.3063 36.4457L55.3342 35.4607L55.508 37.7204C55.6239 39.169 55.3922 40.2699 54.6969 41.0231ZM12.1098 41.7184C18.3675 42.4717 26.6531 41.6605 30.1876 39.9222L32.4473 38.8213V41.2549C32.4473 42.9352 32.0996 43.9781 31.3464 44.6734C28.3334 47.3967 17.1507 48.6714 9.85007 47.107C4.05591 45.8902 2.66531 44.7893 2.43355 41.3708L2.25972 38.7634L4.51944 39.9222C5.79416 40.5016 9.21271 41.3128 12.1098 41.7184ZM12.1098 49.8302C18.3675 50.5835 26.6531 49.7723 30.1876 48.034L32.4473 46.9332V49.3667C32.4473 51.047 32.0996 52.09 31.3464 52.7853C28.3334 55.5085 17.1507 56.7832 9.85007 55.2188C4.05591 54.002 2.66531 52.9011 2.43355 49.4826L2.25972 46.8752L4.51944 48.034C5.79416 48.6135 9.21271 49.4246 12.1098 49.8302Z" fill="#0079C1"/>
</svg>
