<svg width="72" height="72" viewBox="0 0 72 72" fill="none" xmlns="http://www.w3.org/2000/svg">
<path d="M2.47505 4.00502C1.80567 4.15689 1.33317 4.75877 1.35005 5.44502V56.835C1.35005 62.9494 4.52817 66.3975 7.65005 67.95C10.7719 69.5025 13.86 69.435 13.86 69.435H58.1401V69.3C58.8319 69.3788 59.5801 69.435 59.5801 69.435C59.5801 69.435 62.3476 69.4519 65.1151 67.86C67.8151 66.3075 70.4757 63.0225 70.6051 57.33C70.6219 57.3019 70.6388 57.2681 70.6501 57.24C70.6501 57.2063 70.6501 57.1838 70.6501 57.15C70.6557 57.0769 70.6557 56.9981 70.6501 56.925V20.79C70.6501 20.7731 70.6501 20.7619 70.6501 20.745C70.6501 20.745 70.6726 19.0575 69.7951 17.325C68.9176 15.5925 66.8757 13.725 63.6751 13.725V13.68H50.0401V16.56H58.0501C57.8757 16.8075 57.7294 17.0325 57.6001 17.28C56.7226 18.9956 56.7001 20.7 56.7001 20.7V55.62C56.6944 56.1375 56.9644 56.6213 57.4144 56.8856C57.8644 57.1444 58.4157 57.1444 58.8657 56.8856C59.3157 56.6213 59.5857 56.1375 59.5801 55.62V20.7C59.5801 20.6606 59.6363 19.62 60.1651 18.585C60.7051 17.5331 61.4644 16.605 63.6751 16.605C65.8801 16.605 66.6394 17.5556 67.1851 18.63C67.7194 19.6875 67.8151 20.7506 67.8151 20.79H67.7701V56.925C67.7701 62.0494 65.7226 64.2094 63.6751 65.385C61.6276 66.5606 59.5801 66.555 59.5801 66.555C59.5801 66.555 57.1444 66.5213 54.7201 65.295C52.2957 64.0688 49.9501 61.9144 49.9501 56.835V5.44502C49.9501 4.65189 49.3032 4.00502 48.5101 4.00502H2.79005C2.68317 3.99377 2.58192 3.99377 2.47505 4.00502ZM4.23005 6.88502H47.0701V56.835C47.0701 61.5713 49.0782 64.6706 51.4351 66.555H13.86C13.8432 66.555 13.8319 66.555 13.815 66.555C13.815 66.555 13.1963 66.5606 12.285 66.42C11.8294 66.3469 11.3232 66.2288 10.755 66.06C10.1869 65.8913 9.55692 65.6831 8.95505 65.385C8.6513 65.2331 8.34755 65.0756 8.05505 64.89C5.9963 63.5963 4.23005 61.3631 4.23005 56.835V6.88502ZM9.99005 15.84C9.19692 15.9525 8.64005 16.6894 8.75255 17.4825C8.86505 18.2756 9.60192 18.8325 10.395 18.72H38.7901C39.3076 18.7256 39.7913 18.4556 40.0557 18.0056C40.3144 17.5556 40.3144 17.0044 40.0557 16.5544C39.7913 16.1044 39.3076 15.8344 38.7901 15.84H10.395C10.35 15.84 10.305 15.84 10.26 15.84C10.215 15.84 10.17 15.84 10.125 15.84C10.08 15.84 10.035 15.84 9.99005 15.84ZM9.99005 21.6C9.19692 21.7125 8.64005 22.4494 8.75255 23.2425C8.86505 24.0356 9.60192 24.5925 10.395 24.48H38.7901C39.3076 24.4856 39.7913 24.2156 40.0557 23.7656C40.3144 23.3156 40.3144 22.7644 40.0557 22.3144C39.7913 21.8644 39.3076 21.5944 38.7901 21.6H10.395C10.35 21.6 10.305 21.6 10.26 21.6C10.215 21.6 10.17 21.6 10.125 21.6C10.08 21.6 10.035 21.6 9.99005 21.6ZM10.665 33.12C9.87192 33.2325 9.31505 33.9694 9.42755 34.7625C9.54005 35.5556 10.2769 36.1125 11.07 36H20.8351C21.3526 36.0056 21.8363 35.7356 22.1007 35.2856C22.3594 34.8356 22.3594 34.2844 22.1007 33.8344C21.8363 33.3844 21.3526 33.1144 20.8351 33.12H11.07C11.025 33.12 10.98 33.12 10.935 33.12C10.89 33.12 10.845 33.12 10.8 33.12C10.755 33.12 10.71 33.12 10.665 33.12ZM27.2701 33.12C26.4769 33.2325 25.92 33.9694 26.0325 34.7625C26.1451 35.5556 26.8819 36.1125 27.675 36H38.7901C39.3076 36.0056 39.7913 35.7356 40.0557 35.2856C40.3144 34.8356 40.3144 34.2844 40.0557 33.8344C39.7913 33.3844 39.3076 33.1144 38.7901 33.12H27.675C27.63 33.12 27.585 33.12 27.54 33.12C27.495 33.12 27.45 33.12 27.405 33.12C27.3601 33.12 27.3151 33.12 27.2701 33.12ZM10.665 38.88C9.87192 38.9925 9.31505 39.7294 9.42755 40.5225C9.54005 41.3156 10.2769 41.8725 11.07 41.76H20.8351C21.3526 41.7656 21.8363 41.4956 22.1007 41.0456C22.3594 40.5956 22.3594 40.0444 22.1007 39.5944C21.8363 39.1444 21.3526 38.8744 20.8351 38.88H11.07C11.025 38.88 10.98 38.88 10.935 38.88C10.89 38.88 10.845 38.88 10.8 38.88C10.755 38.88 10.71 38.88 10.665 38.88ZM27.2701 38.88C26.4769 38.9925 25.92 39.7294 26.0325 40.5225C26.1451 41.3156 26.8819 41.8725 27.675 41.76H38.7901C39.3076 41.7656 39.7913 41.4956 40.0557 41.0456C40.3144 40.5956 40.3144 40.0444 40.0557 39.5944C39.7913 39.1444 39.3076 38.8744 38.7901 38.88H27.675C27.63 38.88 27.585 38.88 27.54 38.88C27.495 38.88 27.45 38.88 27.405 38.88C27.3601 38.88 27.3151 38.88 27.2701 38.88ZM27.2701 44.325C26.4769 44.4375 25.92 45.1744 26.0325 45.9675C26.1451 46.7606 26.8819 47.3175 27.675 47.205H38.7901C39.3076 47.2106 39.7913 46.9406 40.0557 46.4906C40.3144 46.0406 40.3144 45.4894 40.0557 45.0394C39.7913 44.5894 39.3076 44.3194 38.7901 44.325H27.675C27.585 44.3138 27.495 44.3138 27.405 44.325C27.3601 44.325 27.3151 44.325 27.2701 44.325ZM10.665 44.64C9.87192 44.7525 9.31505 45.4894 9.42755 46.2825C9.54005 47.0756 10.2769 47.6325 11.07 47.52H20.8351C21.3526 47.5256 21.8363 47.2556 22.1007 46.8056C22.3594 46.3556 22.3594 45.8044 22.1007 45.3544C21.8363 44.9044 21.3526 44.6344 20.8351 44.64H11.07C11.025 44.64 10.98 44.64 10.935 44.64C10.89 44.64 10.845 44.64 10.8 44.64C10.755 44.64 10.71 44.64 10.665 44.64ZM27.2701 50.085C26.4769 50.1975 25.92 50.9344 26.0325 51.7275C26.1451 52.5206 26.8819 53.0775 27.675 52.965H38.7901C39.3076 52.9706 39.7913 52.7006 40.0557 52.2506C40.3144 51.8006 40.3144 51.2494 40.0557 50.7994C39.7913 50.3494 39.3076 50.0794 38.7901 50.085H27.675C27.585 50.0738 27.495 50.0738 27.405 50.085C27.3601 50.085 27.3151 50.085 27.2701 50.085ZM10.665 50.4C9.87192 50.5125 9.31505 51.2494 9.42755 52.0425C9.54005 52.8356 10.2769 53.3925 11.07 53.28H20.8351C21.3526 53.2856 21.8363 53.0156 22.1007 52.5656C22.3594 52.1156 22.3594 51.5644 22.1007 51.1144C21.8363 50.6644 21.3526 50.3944 20.8351 50.4H11.07C11.025 50.4 10.98 50.4 10.935 50.4C10.89 50.4 10.845 50.4 10.8 50.4C10.755 50.4 10.71 50.4 10.665 50.4ZM27.2701 55.485C26.4769 55.5975 25.92 56.3344 26.0325 57.1275C26.1451 57.9206 26.8819 58.4775 27.675 58.365H38.7901C39.3076 58.3706 39.7913 58.1006 40.0557 57.6506C40.3144 57.2006 40.3144 56.6494 40.0557 56.1994C39.7913 55.7494 39.3076 55.4794 38.7901 55.485H27.675C27.63 55.485 27.585 55.485 27.54 55.485C27.495 55.485 27.45 55.485 27.405 55.485C27.3601 55.485 27.3151 55.485 27.2701 55.485ZM10.665 56.16C9.87192 56.2725 9.31505 57.0094 9.42755 57.8025C9.54005 58.5956 10.2769 59.1525 11.07 59.04H20.8351C21.3526 59.0456 21.8363 58.7756 22.1007 58.3256C22.3594 57.8756 22.3594 57.3244 22.1007 56.8744C21.8363 56.4244 21.3526 56.1544 20.8351 56.16H11.07C11.025 56.16 10.98 56.16 10.935 56.16C10.89 56.16 10.845 56.16 10.8 56.16C10.755 56.16 10.71 56.16 10.665 56.16Z" fill="black"/>
</svg>
