<svg width="72" height="72" viewBox="0 0 72 72" fill="none" xmlns="http://www.w3.org/2000/svg">
<g clip-path="url(#clip0_44_1178)">
<path d="M15.2642 0.864067C14.7602 1.36806 14.4002 2.66407 14.4002 3.74407C14.4002 5.76007 14.4002 5.76007 9.50417 5.76007C6.62417 5.76007 4.24817 6.12007 3.74417 6.62407C2.52017 7.84807 2.52017 67.0321 3.74417 68.2561C4.96817 69.4801 67.0322 69.4801 68.2562 68.2561C69.4802 67.0321 69.4802 7.84807 68.2562 6.62407C67.7522 6.12007 65.3762 5.76007 62.4962 5.76007C57.6002 5.76007 57.6002 5.76007 57.6002 3.74407C57.6002 1.08007 56.3762 6.86646e-05 53.2802 6.86646e-05C50.1842 6.86646e-05 48.9602 1.08007 48.9602 3.74407V5.76007H36.0002H23.0402V3.74407C23.0402 2.66407 22.6802 1.36806 22.1762 0.864067C21.0242 -0.287933 16.4162 -0.287933 15.2642 0.864067ZM20.1602 7.20007C20.1602 11.0161 20.0162 11.5201 18.7202 11.5201C17.4242 11.5201 17.2802 11.0161 17.2802 7.20007C17.2802 3.38407 17.4242 2.88007 18.7202 2.88007C20.0162 2.88007 20.1602 3.38407 20.1602 7.20007ZM54.7202 7.20007C54.7202 11.0161 54.5762 11.5201 53.2802 11.5201C51.9842 11.5201 51.8402 11.0161 51.8402 7.20007C51.8402 3.38407 51.9842 2.88007 53.2802 2.88007C54.5762 2.88007 54.7202 3.38407 54.7202 7.20007ZM14.4002 10.6561C14.4002 13.3201 15.6242 14.4001 18.7202 14.4001C21.8162 14.4001 23.0402 13.3201 23.0402 10.6561V8.64007H36.0002H48.9602V10.6561C48.9602 13.3201 50.1842 14.4001 53.2802 14.4001C56.3762 14.4001 57.6002 13.3201 57.6002 10.6561C57.6002 8.64007 57.6722 8.64007 61.9202 8.64007H66.2402V13.6801V18.7201H36.0002H5.76017V13.6801V8.64007H10.0802C14.3282 8.64007 14.4002 8.64007 14.4002 10.6561ZM66.2402 43.9201V66.2401H36.0002H5.76017V43.9201V21.6001H36.0002H66.2402V43.9201Z" fill="#0072BC"/>
<path d="M14.4004 43.92V60.48H36.0004H57.6004V43.92V27.36H36.0004H14.4004V43.92ZM24.4804 33.84V37.44H20.8804H17.2804V33.84V30.24H20.8804H24.4804V33.84ZM34.5604 33.84V37.44H30.9604H27.3604V33.84V30.24H30.9604H34.5604V33.84ZM44.6404 33.84V37.44H41.0404H37.4404V33.84V30.24H41.0404H44.6404V33.84ZM54.7204 33.84V37.44H51.1204H47.5204V33.84V30.24H51.1204H54.7204V33.84ZM24.4804 43.92V47.52H20.8804H17.2804V43.92V40.32H20.8804H24.4804V43.92ZM34.5604 43.92V47.52H30.9604H27.3604V43.92V40.32H30.9604H34.5604V43.92ZM44.6404 43.92V47.52H41.0404H37.4404V43.92V40.32H41.0404H44.6404V43.92ZM54.7204 43.92V47.52H51.1204H47.5204V43.92V40.32H51.1204H54.7204V43.92ZM24.4804 54V57.6H20.8804H17.2804V54V50.4H20.8804H24.4804V54ZM34.5604 54V57.6H30.9604H27.3604V54V50.4H30.9604H34.5604V54ZM44.6404 54V57.6H41.0404H37.4404V54V50.4H41.0404H44.6404V54ZM54.7204 54V57.6H51.1204H47.5204V54V50.4H51.1204H54.7204V54Z" fill="#0072BC"/>
</g>
<defs>
<clipPath id="clip0_44_1178">
<rect width="72" height="72" fill="#0072BC"/>
</clipPath>
</defs>
</svg>
