<svg width="46" height="46" viewBox="0 0 46 46" fill="none" xmlns="http://www.w3.org/2000/svg">
<path d="M6.52954 0.971302C3.86549 2.59063 0 7.08295 0 8.59781C0 11.1574 2.19393 16.4855 5.11916 20.8733C8.93241 26.7238 19.223 37.0144 25.0734 40.8276C29.4613 43.7529 34.7894 45.9468 37.349 45.9468C38.8638 45.9468 43.983 41.4545 45.2366 39.0516C46.647 36.2831 46.2814 35.7607 40.4831 31.843C37.5057 29.858 34.6327 28.1864 34.1103 28.1864C33.588 28.1864 32.0209 28.761 30.6627 29.5446C29.3046 30.2759 27.7375 30.746 27.2151 30.5371C26.0659 30.1714 15.1485 19.1495 15.1485 18.3138C15.1485 18.0003 15.7231 16.5377 16.4544 15.1273C17.1857 13.717 17.7603 12.2021 17.7603 11.732C17.7603 11.2619 16.0888 8.4411 14.1038 5.46363C10.0816 -0.491314 9.50701 -0.856968 6.52954 0.971302ZM12.5367 6.76954C14.2605 9.32912 15.6709 11.6275 15.6709 11.8887C15.6709 12.1499 14.9396 13.6647 14.0516 15.3363C12.4845 18.2093 12.4845 18.3138 13.3725 19.7241C14.5217 21.5524 24.3944 31.4251 26.2226 32.5743C27.633 33.4623 27.7375 33.4623 30.6105 31.8952C32.282 31.0072 33.7969 30.2759 34.0581 30.2759C34.7894 30.2759 43.8785 36.492 43.8785 37.0144C43.8785 37.7457 40.1697 42.1858 38.8116 43.0738C34.9983 45.5811 25.1779 39.8351 14.6262 28.8655C6.37283 20.351 1.35814 11.8887 2.2984 8.12768C2.61182 6.92624 7.88768 2.06827 8.93241 2.06827C9.19359 2.06827 10.8129 4.15772 12.5367 6.76954Z" fill="#0072BC"/>
</svg>
