<svg width="46" height="34" viewBox="0 0 46 34" fill="none" xmlns="http://www.w3.org/2000/svg">
<path d="M0 16.5601V33.1201H23H46V16.5601V0.000118256H23H0V16.5601ZM44.16 16.5601V31.2801H23H1.84V16.5601V1.84012H23H44.16V16.5601Z" fill="#0072BC"/>
<path d="M3.68003 7.45201C3.68003 8.37201 5.10603 9.33801 12.972 13.8C18.032 16.652 22.54 19.044 22.954 19.044C23.368 19.09 27.876 16.744 33.028 13.846C41.078 9.24601 42.32 8.41801 42.32 7.45201V6.34801L40.388 7.49801C31.832 12.42 23.46 17.02 23 17.02C22.724 17.02 18.722 14.858 14.122 12.282C2.57603 5.70401 3.68003 6.21001 3.68003 7.45201Z" fill="#0072BC"/>
</svg>
