<svg width="45" height="46" viewBox="0 0 45 46" fill="none" xmlns="http://www.w3.org/2000/svg">
<path d="M22.14 0.494839C19.845 1.16984 17.325 4.00484 16.65 6.56984C16.11 8.59484 15.885 8.86484 13.86 9.76484L11.655 10.7548L6.21004 8.05484C3.06004 6.47984 0.630043 5.48984 0.405043 5.71484C0.180043 5.93984 0.045043 13.4998 0.090043 22.7248L0.225043 39.2848L5.98504 42.2098L11.79 45.0898L17.19 42.4348L22.635 39.7348L28.395 42.3898L34.2 45.0898L39.51 42.2098L44.775 39.3748L44.91 22.7698C44.955 12.9148 44.82 5.93984 44.595 5.71484C44.325 5.44484 42.39 6.25484 39.465 7.82984C36.855 9.22484 34.65 10.3498 34.515 10.3498C34.425 10.3498 34.2 9.31484 34.065 8.05484C33.525 3.59984 30.42 0.539837 26.055 0.224838C24.705 0.0898399 22.95 0.224838 22.14 0.494839ZM29.16 3.01484C31.545 4.76984 32.175 6.16484 32.175 9.35984C32.175 11.8348 31.905 12.9598 30.69 15.5248C29.07 18.9448 25.74 24.2998 25.245 24.2998C24.66 24.2998 22.185 20.5198 20.475 17.1448C18.585 13.3648 17.73 9.89984 18.18 7.55984C18.54 5.53484 20.34 3.28484 22.275 2.42984C24.075 1.57484 27.675 1.88984 29.16 3.01484ZM6.97504 10.4398L11.655 12.7798L13.725 11.7898C16.02 10.6648 16.65 10.7998 16.65 12.3298C16.65 14.7148 23.805 26.9998 25.2 26.9998C26.37 26.9998 33.3 15.6148 33.3 13.7248C33.3 13.2298 42.12 8.09984 42.975 8.09984C43.11 8.09984 43.2 14.8498 43.2 23.1298V38.2048L38.655 40.6348L34.11 43.0648L28.26 40.3648L22.41 37.6648L17.55 40.1848C14.85 41.6248 12.33 42.7498 11.97 42.7498C11.565 42.7498 9.13504 41.6698 6.52504 40.4098L1.80004 38.0248V23.0848C1.80004 14.8498 1.89004 8.09984 2.02504 8.09984C2.16004 8.09984 4.36504 9.13484 6.97504 10.4398Z" fill="#0072BC"/>
<path d="M22.995 6.0299C19.08 8.1899 20.745 14.3999 25.2 14.3999C27.495 14.3999 29.7 12.1949 29.7 9.9449C29.7 6.5699 25.965 4.3649 22.995 6.0299ZM27 8.0999C27.495 8.5949 27.9 9.4049 27.9 9.8999C27.9 11.0699 26.37 12.5999 25.2 12.5999C24.03 12.5999 22.5 11.0699 22.5 9.8999C22.5 9.4049 22.905 8.5949 23.4 8.0999C23.895 7.6049 24.705 7.1999 25.2 7.1999C25.695 7.1999 26.505 7.6049 27 8.0999Z" fill="#0072BC"/>
</svg>
