<svg width="42" height="65" viewBox="0 0 42 65" fill="none" xmlns="http://www.w3.org/2000/svg">
<path d="M14.4305 1.02517C7.60009 3.48974 3.02304 8.20763 1.05139 14.8267C-1.27235 22.5725 0.206391 28.8396 5.98052 36.022L9.85341 40.8807V49.1899C9.85341 56.654 9.99424 57.7102 11.2617 58.9777C12.0363 59.7523 13.163 60.386 13.7967 60.386C14.4305 60.386 15.8388 61.3014 16.895 62.4985C19.5708 65.3856 22.6692 65.3856 25.345 62.4985C26.4012 61.3014 27.8095 60.386 28.4433 60.386C29.077 60.386 30.2037 59.7523 30.9783 58.9777C32.2458 57.7102 32.3866 56.654 32.3866 48.7674V40.0358L35.5553 36.3037C40.907 29.9662 41.8928 27.7129 41.8928 21.305C41.8928 14.8972 40.4845 11.0243 36.682 6.65847C31.6824 0.954758 21.6833 -1.58022 14.4305 1.02517ZM29.2179 4.6164C35.1328 7.6443 38.7241 13.1368 39.2874 19.8967C39.7099 25.1075 38.2311 28.8396 33.9358 33.6983C30.2741 37.7824 29.57 39.6837 29.57 44.9649V49.1194H21.12H12.6701V44.6832C12.6701 39.9653 12.318 39.1908 7.24801 32.9941C3.7272 28.6283 2.53013 24.8963 3.02304 19.4742C3.7272 11.7989 8.65634 5.74306 16.1909 3.27849C19.0779 2.29266 26.19 3.06724 29.2179 4.6164ZM29.4291 54.5415L29.2179 57.2173H21.12H13.0221L12.8109 54.5415L12.5996 51.9361H21.12H29.6404L29.4291 54.5415ZM22.8804 61.0902C22.6692 61.4423 21.8242 61.7944 21.12 61.7944C20.4158 61.7944 19.5708 61.4423 19.3596 61.0902C19.0779 60.6677 19.8525 60.386 21.12 60.386C22.3875 60.386 23.1621 60.6677 22.8804 61.0902Z" fill="#0072BC"/>
<path d="M14.3603 21.7275C14.149 22.15 15.2053 23.84 16.8248 25.4595L19.7119 28.417V37.3599C19.7119 45.8098 19.7823 46.3027 21.1202 46.3027C22.4581 46.3027 22.5286 45.8098 22.5286 37.3599V28.417L25.486 25.3891C27.8098 22.995 28.2323 22.15 27.5985 21.5162C26.9648 20.8825 26.1198 21.305 23.9369 23.4175L21.1202 26.1637L18.4444 23.5583C15.5574 20.7416 15.1349 20.5304 14.3603 21.7275Z" fill="#0072BC"/>
</svg>
