<svg width="71" height="61" viewBox="0 0 71 61" fill="none" xmlns="http://www.w3.org/2000/svg">
<path d="M34.0821 12.3297V24.5263L27.7001 30.9083L21.3181 37.2193L18.269 34.2411C16.638 32.6101 14.7943 31.2628 14.1561 31.2628C12.7379 31.2628 0.0449219 44.1686 0.0449219 45.6577C0.0449219 48.1396 2.66862 46.7214 8.34147 41.0485L14.2271 35.1629L16.4962 37.503L18.8363 39.7721L9.40513 49.2032C4.29956 54.3797 0.0449219 59.1307 0.0449219 59.8398C0.0449219 62.4635 2.81044 60.7617 10.1142 53.4579L17.7726 45.8704L21.0345 47.4305L24.2964 49.0614L26.6364 47.2177C29.6147 45.0195 30.0401 45.0195 33.0893 47.2887L35.5003 49.1323L37.9112 47.2887C40.9604 45.0195 41.3859 45.0195 44.3641 47.2177L46.7042 49.0614L49.966 47.4305L53.2279 45.8704L60.8863 53.4579C68.1901 60.7617 70.9556 62.4635 70.9556 59.8398C70.9556 59.1307 66.701 54.3797 61.5954 49.2032L52.1643 39.7721L54.5043 37.503L56.7735 35.1629L62.6591 41.0485C68.4028 46.7214 70.9556 48.1396 70.9556 45.5868C70.9556 44.0977 58.2626 31.2628 56.7735 31.2628C56.2062 31.2628 54.3625 32.6101 52.7316 34.2411L49.6824 37.2193L43.3004 30.9083L36.9185 24.5263V19.1371V13.7479L43.1586 11.3369C51.8097 7.93323 51.8097 6.94048 43.3004 3.04039C33.4439 -1.49789 34.0821 -2.13609 34.0821 12.3297ZM43.1586 35.7302C50.3206 42.9631 50.4624 43.1049 48.7606 43.814C47.2005 44.5231 46.5623 44.3104 44.0805 42.4667L41.1731 40.3394L38.6912 42.1831C37.4149 43.1758 35.9257 44.0268 35.5003 44.0268C35.0748 44.0268 33.5857 43.1758 32.3093 42.1831L29.8274 40.3394L26.9201 42.4667C24.4382 44.3104 23.8 44.5231 22.24 43.814C20.5381 43.1049 20.6799 42.9631 27.8419 35.7302C31.8129 31.6883 35.2875 28.4264 35.5003 28.4264C35.713 28.4264 39.1876 31.6883 43.1586 35.7302Z" fill="#0079C1"/>
</svg>
