<svg width="70" height="70" viewBox="0 0 70 70" fill="none" xmlns="http://www.w3.org/2000/svg">
<path d="M26.2655 1.07581C13.2193 4.20752 2.76702 15.7414 0.478212 29.414C-3.41277 52.558 17.0339 73.1815 40.2272 69.5915C47.5514 68.4457 53.2734 65.6196 58.6903 60.5019C64.1834 55.2315 67.3115 49.8846 68.9136 43.3157C70.8973 34.6844 70.2106 27.8099 66.4722 19.9424C64.8701 16.4288 64.4123 15.8941 63.4968 16.8107C62.6576 17.651 62.8101 18.5675 64.4886 22.7686C67.3115 29.414 67.4641 40.0312 64.8701 46.4474C61.4369 55.0023 54.9519 61.4949 46.407 64.9321C43.1264 66.2306 40.685 66.6125 34.963 66.6125C29.2409 66.6125 26.7995 66.2306 23.5189 64.9321C14.974 61.4949 8.48905 55.0023 5.05583 46.4474C2.69073 40.4895 2.69073 29.4903 5.05583 23.5325C9.78604 11.7694 20.0857 4.20752 32.6741 3.13815C38.7013 2.60347 46.0255 4.2839 50.9846 7.33923C55.1808 9.93625 55.7911 12.3805 52.9683 15.0539C51.1372 16.7344 50.9083 16.8107 49.6876 15.7414C45.7204 12.3041 41.5242 10.9292 34.963 11.0056C27.3336 11.0056 22.6797 12.8388 17.7969 17.8037C12.8378 22.7686 11.0067 27.3516 11.0067 34.9899C10.9304 40.9478 11.1593 41.8644 13.5244 46.2946C16.4236 51.6414 18.865 53.9329 24.587 56.9883C27.8676 58.6687 29.4698 58.9742 34.963 58.9742C40.4561 58.9742 42.0583 58.6687 45.3389 56.9883C51.1372 53.9329 53.5023 51.6414 56.3252 46.2946C58.6903 42.0172 58.9192 40.795 58.9955 35.2955C58.9955 30.3305 58.614 28.421 57.1644 25.2129C55.486 21.6229 55.1808 21.3173 54.1127 22.3103C53.1208 23.3033 53.1971 23.838 54.4941 26.7405C56.7067 31.7054 56.4778 39.6493 53.8838 44.5378C48.9247 54.0093 38.7776 58.2868 28.478 55.3078C20.0857 52.8636 13.6007 44.0031 13.6007 34.9899C13.6007 25.9767 20.0857 17.1163 28.478 14.672C34.1237 13.068 39.5406 13.6026 44.8048 16.1997C46.9411 17.3454 48.6958 18.4148 48.6958 18.7203C48.6958 19.0258 47.6277 20.3244 46.3307 21.6993L43.9656 24.1435L40.7613 22.6922C36.5651 20.7827 32.9793 20.859 28.8595 22.9214C18.7887 28.0391 18.7887 41.9408 28.8595 46.9821C36.5651 50.954 45.2626 47.2876 48.0092 39.0382C48.8484 36.5176 48.6195 30.7888 47.6277 29.7959C46.5596 28.8029 45.3389 31.3999 45.3389 34.8372C45.1863 45.6836 32.0638 49.5027 26.0366 40.4131C22.756 35.601 24.4344 29.1084 29.775 25.8239C33.2845 23.6852 38.3199 23.9144 40.9902 26.3586C41.6768 26.8933 36.1837 31.9346 34.8867 31.9346C31.9112 31.9346 30.9957 35.9065 33.5897 37.5869C35.2681 38.6563 37.4806 37.4342 37.8621 35.2955C38.0147 34.5316 42.2871 29.6431 47.3988 24.4491C55.2571 16.5816 57.0118 15.1303 58.9955 15.1303C60.8265 15.1303 62.1998 14.2901 65.0227 11.3111L68.6848 7.49199H65.5567H62.4287V4.2839V1.07581L59.4532 3.97836L56.4778 6.88093L52.3579 4.58943C44.4997 0.0828247 35.497 -1.13931 26.2655 1.07581Z" fill="#0079C1"/>
</svg>
