<svg width="42" height="65" viewBox="0 0 42 65" fill="none" xmlns="http://www.w3.org/2000/svg">
<path d="M14.4305 1.02542C7.60009 3.48999 3.02304 8.20787 1.05139 14.827C-1.27235 22.5728 0.206391 28.8398 5.98052 36.0223L9.85341 40.881V49.1901C9.85341 56.6542 9.99424 57.7105 11.2617 58.978C12.0363 59.7525 13.163 60.3863 13.7967 60.3863C14.4305 60.3863 15.8388 61.3017 16.895 62.4988C19.5708 65.3858 22.6692 65.3858 25.345 62.4988C26.4012 61.3017 27.8095 60.3863 28.4433 60.3863C29.077 60.3863 30.2037 59.7525 30.9783 58.978C32.2458 57.7105 32.3866 56.6542 32.3866 48.7676V40.036L35.5553 36.3039C40.907 29.9665 41.8928 27.7132 41.8928 21.3053C41.8928 14.8974 40.4845 11.0245 36.682 6.65871C31.6824 0.955002 21.6833 -1.57998 14.4305 1.02542ZM29.2179 4.61665C35.1328 7.64454 38.7241 13.137 39.2874 19.897C39.7099 25.1078 38.2311 28.8398 33.9358 33.6985C30.2741 37.7827 29.57 39.6839 29.57 44.9651V49.1197H21.12H12.6701V44.6835C12.6701 39.9656 12.318 39.191 7.24801 32.9944C3.7272 28.6286 2.53013 24.8965 3.02304 19.4745C3.7272 11.7991 8.65634 5.7433 16.1909 3.27874C19.0779 2.29291 26.19 3.06749 29.2179 4.61665ZM29.4291 54.5417L29.2179 57.2175H21.12H13.0221L12.8109 54.5417L12.5996 51.9363H21.12H29.6404L29.4291 54.5417ZM22.8804 61.0904C22.6692 61.4425 21.8242 61.7946 21.12 61.7946C20.4158 61.7946 19.5708 61.4425 19.3596 61.0904C19.0779 60.6679 19.8525 60.3863 21.12 60.3863C22.3875 60.3863 23.1621 60.6679 22.8804 61.0904Z" fill="#0072BC"/>
<path d="M14.3603 21.7277C14.1491 22.1502 15.2053 23.8402 16.8249 25.4598L19.712 28.4173V37.3601C19.712 45.8101 19.7824 46.303 21.1203 46.303C22.4582 46.303 22.5286 45.8101 22.5286 37.3601V28.4173L25.4861 25.3894C27.8098 22.9952 28.2323 22.1502 27.5986 21.5165C26.9648 20.8827 26.1198 21.3052 23.9369 23.4177L21.1203 26.1639L18.4445 23.5585C15.5574 20.7419 15.1349 20.5306 14.3603 21.7277Z" fill="#0072BC"/>
</svg>
