<svg width="24" height="22" viewBox="0 0 24 22" fill="none" xmlns="http://www.w3.org/2000/svg">
<g clip-path="url(#clip0_933_1375)">
<path fill-rule="evenodd" clip-rule="evenodd" d="M21.2446 1.13208H3.45263C2.84263 1.13208 2.34863 1.62608 2.34863 2.23608V20.0281C2.34863 20.6381 2.84263 21.1321 3.45263 21.1321H13.0306V13.3871H10.4246V10.3691H13.0306V8.14208C13.0306 5.55808 14.6086 4.15208 16.9136 4.15208C18.0176 4.15208 18.9656 4.23408 19.2426 4.27108V6.97108H17.6446C16.3906 6.97108 16.1486 7.56708 16.1486 8.44108V10.3681H19.1376L18.7476 13.3861H16.1476V21.1321H21.2446C21.8546 21.1321 22.3486 20.6381 22.3486 20.0281V2.23608C22.3486 1.62608 21.8546 1.13208 21.2446 1.13208Z" fill="white"/>
</g>
<defs>
<clipPath id="clip0_933_1375">
<rect width="23" height="21.4868" fill="white" transform="translate(0.5 0.391357)"/>
</clipPath>
</defs>
</svg>
