<svg width="635" height="556" viewBox="0 0 635 556" fill="none" xmlns="http://www.w3.org/2000/svg">
<g clip-path="url(#clip0_2_652)">
<path d="M747.009 108.098C747.009 108.098 700.979 15.966 599.352 2.31799C497.726 -11.329 426.779 55.208 351.99 89.328C312.84 107.202 268.11 100.305 226.526 108.922C93.5962 136.547 43.5062 309.834 98.8842 408.387C146.816 493.695 231.191 538.041 359.674 548.286C488.158 558.531 578.259 570.459 693.314 486.871C808.369 403.283 800.703 229.246 747.009 108.098Z" fill="#B1FAD3" fill-opacity="0.5"/>
<path d="M758.255 73.924H275.551V281H758.255V73.924Z" fill="white" stroke="#042442" stroke-linecap="round" stroke-linejoin="round"/>
<path d="M771.391 68.0879H262.434V76.8319H771.391V68.0879Z" fill="white" stroke="#042442" stroke-linecap="round" stroke-linejoin="round"/>
<path d="M758.255 273.702H275.551V281.001H758.255V273.702Z" fill="#042442" stroke="#042442" stroke-linecap="round" stroke-linejoin="round"/>
<path d="M347.83 101.476V195.455M304.453 144.853H389.999M483.228 152.902H568.774M525.398 108.336V202.316M494.078 120.374L507.067 130.473C512.689 134.847 519.589 137.26 526.712 137.343C533.835 137.425 540.789 135.173 546.511 130.93L559.152 121.581M559.098 181.002L546.108 170.904C540.482 166.532 533.579 164.121 526.455 164.038C519.33 163.956 512.374 166.206 506.647 170.446L494.023 179.795M678.873 107.422V186.326M636.484 147.45H716.578M641.625 144.303V150.707M646.271 144.303V150.707M650.936 144.303V150.707M655.582 144.303V150.707M660.248 144.303V150.707M664.894 144.303V150.707M669.541 144.303V150.707M674.207 144.303V150.707M683.5 144.303V150.707M688.166 144.303V150.707M692.812 144.303V150.707M697.478 144.303V150.707M702.125 144.303V150.707M706.771 144.303V150.707M711.437 144.303V150.707M675.672 182.411H682.075M675.672 177.746H682.075M675.672 173.099H682.075M675.672 168.434H682.075M675.672 163.787H682.075M675.672 159.14H682.075M675.672 154.475H682.075M675.672 140.517H682.075M675.672 135.869H682.075M675.672 131.204H682.075M675.672 126.558H682.075M675.672 121.91H682.075M675.672 117.246H682.075M675.672 112.599H682.075M310.254 214.61H383.323M310.254 223.61H383.323M310.254 232.612H383.323M310.254 241.63H383.323M495.414 214.61H568.483M495.414 223.61H568.483M495.414 232.612H568.483M495.414 241.63H568.483M646.547 214.61H719.616M646.547 223.61H719.616M646.547 232.612H719.616M646.547 241.63H719.616M401.342 166.568H474.392M401.342 175.569H474.392M401.342 184.57H474.392M401.342 193.589H474.392M565.482 99.5H638.533M565.482 108.519H638.533M565.482 117.52H638.533M565.482 126.521H638.533M381.094 149.822C384.177 131.785 372.054 114.664 354.018 111.581C335.981 108.498 318.861 120.62 315.778 138.657C312.695 156.693 324.817 173.814 342.853 176.897C360.89 179.98 378.01 167.858 381.094 149.822Z" stroke="#042442" stroke-miterlimit="10"/>
<path d="M144.837 280.471H50.6016V359.632H144.837V280.471ZM202.027 369.693H107.791V374.725H202.027V369.693Z" fill="#042442" stroke="#042442" stroke-linecap="round" stroke-linejoin="round"/>
<path d="M104.019 337.643H85.7986V374.086H104.019V337.643ZM291.248 381.915H39.9336V549.11H291.249V381.915H291.248Z" fill="#8292A1" stroke="#042442" stroke-linecap="round" stroke-linejoin="round"/>
<path d="M44.0481 383.122H35.5781V553.061H44.0481V383.122ZM294.668 383.122H286.197V553.061H294.668V383.122Z" fill="#8292A1" stroke="#042442" stroke-linecap="round" stroke-linejoin="round"/>
<path d="M306.579 372.987H28.5V388.958H306.579V372.987Z" fill="#8292A1" stroke="#042442" stroke-linecap="round" stroke-linejoin="round"/>
<path d="M432.208 218.378C432.208 218.378 422.109 224.653 418.834 232.849C415.56 241.045 401.912 283.397 398.363 288.867C394.813 294.338 394.813 302.79 398.911 307.437C403.009 312.083 409.888 315.065 415.56 309.614C421.231 304.162 422.877 293.24 428.366 280.342C433.854 267.444 438.483 231.148 441.172 223.775C442.809 219.374 443.909 214.791 444.447 210.127L432.208 218.378Z" fill="white" stroke="#042442" stroke-linecap="round" stroke-linejoin="round"/>
<path d="M514.665 324.89C514.665 324.89 516.293 346.606 515.47 357.656C514.647 368.706 507.292 438.408 507.292 438.408L496.645 532.443H480.271L468.379 393.769L452.426 532.04H435.632C435.632 532.04 425.808 444.958 422.936 424.102C421.216 411.058 420.805 397.875 421.71 384.75C421.71 383.524 418.051 355.68 418.051 347.905C418.107 342.607 418.473 337.317 419.149 332.062L418.472 329.061C418.472 329.061 448.768 337.257 469.697 332.336C490.626 327.415 511.043 320.884 511.043 320.884L514.665 324.89Z" fill="#042442" stroke="#042442" stroke-linecap="round" stroke-linejoin="round"/>
<path d="M496.64 532.443L501.543 549.238C501.713 549.504 501.828 549.801 501.879 550.112C501.931 550.423 501.919 550.742 501.844 551.048C501.77 551.355 501.633 551.643 501.443 551.894C501.253 552.146 501.013 552.356 500.738 552.512C498.689 553.738 475.747 552.512 475.747 552.512C475.1 552.179 474.586 551.634 474.29 550.969C473.994 550.304 473.934 549.557 474.119 548.853C474.521 545.981 480.266 532.388 480.266 532.388L496.64 532.443ZM452.421 532.04L453.903 547.353C453.993 548.306 453.74 549.259 453.19 550.042C452.824 550.553 452.34 550.969 451.78 551.255C451.22 551.542 450.599 551.69 449.97 551.688H418.229C415.009 551.688 408.789 551.579 409.392 548.414C409.795 546.365 435.59 532.095 435.59 532.095L452.421 532.04Z" stroke="#042442" stroke-linecap="round" stroke-linejoin="round"/>
<path d="M468.376 393.769L464.296 376.499L449.551 366.254" stroke="#6B6B6B" stroke-linecap="round" stroke-linejoin="round"/>
<path d="M426.48 239.399V271.323C426.48 273.153 416.656 315.23 415.832 319.365C415.009 323.5 415.832 327.286 419.107 331.915C422.382 336.544 434.676 341.209 461.423 343.386C488.169 345.563 508.11 335.739 513.562 329.464C519.014 323.188 512.739 311.169 510.836 294.246C508.934 277.324 508.367 223.757 500.738 220.281C493.109 216.805 468.521 205.005 468.521 205.005C468.521 205.005 454.599 205.005 445.323 209.103C439.23 212.023 433.829 216.208 429.48 221.379" fill="white"/>
<path d="M426.48 239.399V271.323C426.48 273.153 416.656 315.23 415.832 319.365C415.009 323.5 415.832 327.286 419.107 331.915C422.382 336.544 434.676 341.209 461.423 343.386C488.169 345.563 508.11 335.739 513.562 329.464C519.014 323.188 512.739 311.169 510.836 294.246C508.934 277.324 508.367 223.757 500.738 220.281C493.109 216.805 468.521 205.005 468.521 205.005C468.521 205.005 454.599 205.005 445.323 209.103C439.23 212.023 433.829 216.208 429.48 221.379" stroke="#042442" stroke-linecap="round" stroke-linejoin="round"/>
<path d="M466.879 199.534C468.403 199.407 469.928 199.761 471.24 200.545C472.553 201.33 473.587 202.505 474.197 203.907C476.118 208.828 470.099 238.575 470.099 238.575C470.099 238.575 456.726 229.025 453.451 229.025C450.176 229.025 435.156 238.575 435.156 238.575C435.156 238.575 440.078 218.104 444.45 210.182C448.822 202.26 460.824 197.906 465.745 199.205L466.879 199.534Z" fill="white" stroke="#042442" stroke-linecap="round" stroke-linejoin="round"/>
<path d="M467.973 196.809C467.973 196.809 469.07 199.534 464.149 212.652C459.228 225.769 456.831 236.947 453.776 233.928C450.721 230.91 447.227 215.103 447.227 215.103C447.227 215.103 463.051 203.632 467.973 196.809Z" fill="white" stroke="#042442" stroke-linecap="round" stroke-linejoin="round"/>
<path d="M424.066 175.66C425.452 183.243 427.235 190.748 429.408 198.144C432.061 206.121 435.482 217.921 444.611 220.573C453.74 223.226 456.411 216.402 460.217 213.255C464.022 210.109 470.096 199.937 470.096 194.961C470.096 189.985 469.712 178.99 467.809 175.184C465.906 171.379 462.485 167.574 452.606 165.671C442.727 163.768 433.58 165.378 424.066 175.66Z" fill="white" stroke="#042442" stroke-linecap="round" stroke-linejoin="round"/>
<path d="M467.059 185.924C467.059 185.924 461.351 188.211 459.833 184.789C458.314 181.368 455.643 176.411 455.643 176.411C455.643 176.411 443.843 181.368 436.635 181.679C429.427 181.99 421.414 177.508 420.279 172.532C419.145 167.556 423.316 156.561 432.83 150.578C442.343 144.596 462.101 141.815 468.193 151.329C472.812 158.584 475.075 167.089 474.67 175.679C474.67 182.137 474.285 186.656 474.285 186.656C473.203 186.026 471.998 185.634 470.752 185.508C469.505 185.382 468.246 185.524 467.059 185.924Z" fill="#042442" stroke="#042442" stroke-linecap="round" stroke-linejoin="round"/>
<path d="M464.773 188.595C464.773 188.595 468.195 179.832 471.616 180.984C475.037 182.137 475.421 188.979 473.445 193.15C471.469 197.321 466.603 198.858 465.469 198.108" fill="white"/>
<path d="M464.771 188.595C464.771 188.595 468.193 179.832 471.614 180.984C475.035 182.137 475.419 188.979 473.443 193.15C471.467 197.321 466.601 198.858 465.467 198.108M457.803 193.425L466.328 184.698M422.914 192.637L426.207 188.576M439.197 193.223C439.197 193.223 452.954 192.254 455.863 192.638C458.772 193.022 458.369 196.297 457.601 199.956C456.833 203.615 452.369 205.774 447.136 204.804C441.904 203.834 440.733 199.316 439.819 198.602C438.904 197.889 438.465 197.047 437.312 197.632C436.16 198.218 436.343 202.279 434.989 204.017C433.635 205.755 429.939 207.127 425.841 204.987C421.743 202.846 421.963 196.663 421.963 194.522C421.963 192.382 424.085 192.583 425.055 192.693C426.024 192.803 439.197 193.223 439.197 193.223Z" stroke="#042442" stroke-linecap="round" stroke-linejoin="round"/>
<path d="M437.056 199.809C437.056 199.809 436.288 202.132 435.885 204.071C435.483 206.011 437.056 209.889 439.379 209.56C441.703 209.231 442.288 208.005 442.288 208.005M452.991 190.516C450.376 189.705 447.558 189.841 445.033 190.9M435.116 191.284C434.249 190.571 433.171 190.165 432.049 190.129C430.928 190.093 429.825 190.428 428.914 191.083" stroke="#042442" stroke-linecap="round" stroke-linejoin="round"/>
<path d="M492.818 217.006C492.818 217.006 504.564 220.555 509.741 224.928C514.918 229.3 523.279 263.639 525.73 280.013C528.182 296.387 532.006 310.547 528.731 312.468C525.456 314.389 474.249 307.693 474.249 307.693L472.621 299.789L505.991 292.837C505.991 292.837 487.348 256.248 486.818 246.223C486.322 240.851 487.067 235.437 488.995 230.398" fill="white"/>
<path d="M492.818 217.006C492.818 217.006 504.564 220.555 509.741 224.928C514.918 229.3 523.279 263.639 525.73 280.013C528.182 296.387 532.006 310.547 528.731 312.468C525.456 314.389 474.249 307.693 474.249 307.693L472.621 299.789L505.991 292.837C505.991 292.837 487.348 256.248 486.818 246.223C486.322 240.851 487.067 235.437 488.995 230.398" stroke="#042442" stroke-linecap="round" stroke-linejoin="round"/>
<path d="M438.225 280.946L452.678 316.437L428.126 325.438L412.832 291.044L438.225 280.946ZM412.831 291.044L395.359 278.219L410.91 314.26L428.126 325.438L412.831 291.044Z" fill="#5DCFE8"/>
<path d="M428.126 325.438L452.678 316.437L438.225 280.946L412.832 291.044L428.126 325.438ZM428.126 325.438L410.91 314.26L395.359 278.219L412.831 291.044L428.126 325.438Z" stroke="#042442" stroke-linecap="round" stroke-linejoin="round"/>
<path d="M472.624 299.789C472.624 299.789 452.957 294.301 450.78 292.691C448.603 291.081 430.308 298.417 429.211 298.417C428.113 298.417 428.387 299.789 429.485 300.338C430.583 300.887 442.584 297.594 442.584 297.594C442.584 297.594 431.131 303.613 431.131 304.912C431.146 305.333 431.25 305.747 431.436 306.125C431.622 306.503 431.886 306.838 432.211 307.107C432.211 307.107 432.485 309.559 433.857 310.107C435.229 310.656 449.133 307.912 449.133 307.912C449.133 307.912 438.157 312.01 439.584 312.833C440.241 313.238 440.998 313.452 441.77 313.452C442.542 313.452 443.299 313.238 443.956 312.833C445.584 312.01 455.427 309.01 455.427 309.01C455.427 309.01 462.745 311.187 466.879 310.107C469.365 309.431 471.809 308.606 474.197 307.638L472.624 299.789Z" fill="white" stroke="#042442" stroke-linecap="round" stroke-linejoin="round"/>
<path d="M432.211 307.162L445.859 303.338" stroke="#042442" stroke-linecap="round" stroke-linejoin="round"/>
<path d="M398.362 288.868C398.362 288.868 407.638 295.692 409.339 297.869C409.814 298.482 410.157 299.187 410.346 299.94C410.535 300.692 410.566 301.476 410.437 302.241L404.418 299.79C404.418 299.79 412.065 306.613 412.34 307.693C412.614 308.772 415.34 313.437 412.065 312.889C408.79 312.34 398.966 307.162 397.045 304.418C395.124 301.674 394.594 288.868 394.594 288.868C394.594 288.868 395.362 286.142 398.362 288.868Z" fill="white" stroke="#042442" stroke-linecap="round" stroke-linejoin="round"/>
<path d="M412.287 309.339L401.365 302.79M413.384 311.791C413.384 311.791 403.56 307.437 401.639 305.79M404.365 299.789L401.09 297.593" stroke="#042442" stroke-linecap="round" stroke-linejoin="round"/>
<path d="M471.743 398.398H464.133V553.061H471.743V398.398ZM819.157 398.398H811.547V553.061H819.157V398.398Z" fill="white" stroke="#042442" stroke-linecap="round" stroke-linejoin="round"/>
<path d="M829.863 389.27H457.768V403.631H829.863V389.27ZM81.6647 398.399H74.0547V553.061H81.6647V398.399ZM429.064 398.399H421.453V553.061H429.064V398.399Z" fill="white" stroke="#042442" stroke-linecap="round" stroke-linejoin="round"/>
<path d="M439.783 389.27H67.6875V403.631H439.783V389.27Z" fill="white" stroke="#042442" stroke-linecap="round" stroke-linejoin="round"/>
<path d="M561.445 325.329V310.09H583.198V326.463L561.445 325.329ZM550.723 290.605C550.723 290.605 547.32 289.746 547.32 295.124C547.32 300.503 551.784 304.253 553.614 303.869C555.443 303.485 552.772 293.423 552.48 291.447C552.187 289.471 550.723 290.605 550.723 290.605ZM593.093 290.605C593.093 290.605 596.477 289.746 596.477 295.124C596.477 300.503 592.032 304.253 590.203 303.869C588.373 303.485 591.044 293.423 591.318 291.447C591.593 289.471 593.093 290.605 593.093 290.605Z" fill="white" stroke="#042442" stroke-linecap="round" stroke-linejoin="round"/>
<path d="M593.164 269.33C593.164 269.33 595.286 268.269 592.908 263.219C592.274 261.789 591.323 260.521 590.129 259.51C588.934 258.499 587.527 257.772 586.011 257.383C586.011 257.383 587.84 256.322 587.84 255.261C587.84 254.2 585.462 253.944 578.29 256.066C576.349 256.486 574.593 257.515 573.277 259.002C571.961 260.489 571.154 262.357 570.973 264.335C570.838 264.257 570.698 264.19 570.552 264.134C568.814 263.292 562.081 260.292 558.862 261.902C555.203 263.731 559.392 263.219 559.392 263.219C555.172 263.908 551.375 266.186 548.781 269.586C544.811 275.074 547.72 275.696 548.525 275.696C549.33 275.696 550.117 273.3 550.117 273.3V278.349C550.117 278.349 550.208 278.788 550.373 279.483C549.257 286.966 551.233 295.436 552.33 300.76C553.739 307.547 559.392 314.042 563.636 315.396C567.881 316.749 580.852 315.396 580.852 315.396C584.086 312.14 586.845 308.445 589.048 304.419C591.404 299.44 592.652 294.01 592.707 288.502C594.152 285.479 595.003 282.206 595.213 278.861C595.817 271.982 593.164 269.33 593.164 269.33Z" fill="#042442" stroke="#042442" stroke-linecap="round" stroke-linejoin="round"/>
<path d="M586.304 298.053C586.304 298.053 574.321 291.595 562.521 296.645C555.697 299.553 550.666 306.798 550.666 306.798C556.606 305.023 562.762 304.076 568.961 303.981C576.607 304.151 584.24 304.713 591.829 305.664C590.473 302.807 588.599 300.227 586.304 298.053ZM524.45 324.873C524.45 324.873 493.35 373.976 492.545 378.769C491.74 383.562 496.533 390.752 504.912 389.947C513.291 389.142 544.428 388.758 544.428 388.758L544.831 381.166L519.694 377.982L534.86 365.999L524.45 324.873Z" fill="#5DCFE8" stroke="#042442" stroke-linecap="round" stroke-linejoin="round"/>
<path d="M519.694 377.98L507.309 383.963" stroke="#042442" stroke-linecap="round" stroke-linejoin="round"/>
<path d="M620.189 322.896C620.189 322.896 651.71 373.975 652.497 378.768C653.284 383.561 648.509 390.752 640.13 389.947C631.751 389.142 600.613 388.757 600.613 388.757L600.211 381.165L625.366 377.982L610.2 365.999L620.189 322.896Z" fill="#5DCFE8" stroke="#042442" stroke-linecap="round" stroke-linejoin="round"/>
<path d="M625.363 377.98L637.73 383.963" stroke="#042442" stroke-linecap="round" stroke-linejoin="round"/>
<path d="M559.759 302.279L540.55 312.451C530.945 317.536 525.017 322.33 524.45 324.873C523.883 327.416 535.189 407.912 535.189 407.912C535.189 407.912 542.507 415.047 561.735 416.95C590.531 419.767 602.953 410.729 602.953 410.729C602.953 410.729 620.186 326.007 620.186 322.915C620.186 319.823 598.434 309.359 590.823 305.681C583.213 302.004 574.724 298.894 559.759 302.279Z" fill="#5DCFE8" stroke="#042442" stroke-linecap="round" stroke-linejoin="round"/>
<path d="M518.797 431.347L552.404 538.755L561.734 537.62L547.885 428.804L518.797 431.347Z" fill="white" stroke="#042442" stroke-linecap="round" stroke-linejoin="round"/>
<path d="M552.406 538.755L554.62 551.031C554.71 551.529 554.988 551.974 555.397 552.273C555.805 552.573 556.313 552.704 556.815 552.641L563.639 551.763C563.926 551.727 564.201 551.63 564.446 551.476C564.691 551.323 564.899 551.118 565.056 550.876C565.213 550.633 565.315 550.359 565.355 550.073C565.395 549.787 565.371 549.496 565.286 549.22L561.737 537.621L552.406 538.755ZM622.42 431.347L588.813 538.755L579.482 537.62L593.331 428.804L622.42 431.347Z" fill="white" stroke="#042442" stroke-linecap="round" stroke-linejoin="round"/>
<path d="M588.811 538.755L586.542 551.031C586.453 551.529 586.175 551.975 585.766 552.274C585.358 552.574 584.85 552.705 584.347 552.641L577.523 551.763C577.091 551.708 576.689 551.514 576.379 551.208C576.069 550.903 575.869 550.504 575.808 550.073C575.768 549.787 575.792 549.495 575.877 549.22L579.426 537.621L588.811 538.755ZM563.985 418.632C563.985 418.632 533.214 409.027 527.561 411.863C521.908 414.698 516.255 422.016 518.23 430.157C520.206 438.299 537.165 448.233 540.824 448.452C544.483 448.672 564.278 448.452 564.278 448.452L563.985 418.632ZM579.114 418.632C579.114 418.632 609.904 409.027 615.557 411.863C621.21 414.698 626.845 422.016 624.869 430.157C622.893 438.299 605.953 448.233 602.275 448.452C598.598 448.672 578.84 448.452 578.84 448.452L579.114 418.632Z" fill="white" stroke="#042442" stroke-linecap="round" stroke-linejoin="round"/>
<path d="M535.189 407.911C535.189 407.911 532.646 436.14 533.487 439.817C534.329 443.494 543.092 449.421 560.929 449.989C578.766 450.556 601.031 451.397 606.41 444.903C611.788 438.408 603.007 410.728 603.007 410.728C603.007 410.728 555.441 414.68 535.189 407.911Z" fill="white" stroke="#042442" stroke-linecap="round" stroke-linejoin="round"/>
<path d="M534.769 551.36C534.243 551.317 533.755 551.069 533.412 550.668C533.069 550.266 532.899 549.746 532.939 549.22L538.739 442.434L545.398 442.964L536.891 549.549C536.845 550.068 536.597 550.549 536.2 550.887C535.803 551.226 535.29 551.395 534.769 551.36ZM606.666 551.36C607.192 551.317 607.68 551.069 608.023 550.668C608.366 550.266 608.536 549.746 608.496 549.22L602.696 442.434L596.037 442.964L604.544 549.549C604.591 550.068 604.839 550.549 605.236 550.887C605.632 551.226 606.146 551.395 606.666 551.36Z" fill="#042442" stroke="#042442" stroke-linecap="round" stroke-linejoin="round"/>
<path d="M613.325 358.369C598.425 360.52 583.393 361.627 568.338 361.68C554.254 361.524 540.196 360.417 526.261 358.369C525.732 358.285 525.19 358.327 524.68 358.492C524.17 358.657 523.706 358.94 523.326 359.318C522.946 359.696 522.661 360.159 522.494 360.668C522.327 361.177 522.282 361.719 522.364 362.248C524.541 375.749 530.67 414.589 530.67 422.016C530.67 431.054 527.56 439.542 527.56 443.494C527.56 447.446 529.243 450.556 532.078 451.672C533.377 452.202 548.178 452.239 568.192 452.129C591.371 452.239 606.172 452.129 607.471 451.672C610.306 450.556 611.989 447.446 611.989 443.494C611.989 439.542 608.898 431.054 608.898 422.016C608.898 414.589 615.026 375.731 617.185 362.248C617.269 361.722 617.228 361.182 617.064 360.675C616.9 360.167 616.618 359.705 616.242 359.327C615.866 358.949 615.405 358.665 614.898 358.499C614.391 358.332 613.852 358.288 613.325 358.369ZM598.836 441.116C597.829 441.5 586.413 441.537 568.558 441.445C553.135 441.537 541.72 441.445 540.713 441.116C539.569 440.548 538.624 439.645 538.003 438.528C537.382 437.411 537.115 436.132 537.237 434.859C537.237 431.84 539.634 425.364 539.634 418.394C539.634 416.784 539.25 413.198 538.646 408.661L544.317 414.79C545.09 415.624 546.027 416.288 547.07 416.741C548.112 417.194 549.237 417.427 550.373 417.424H589.158C591.31 417.42 593.376 416.58 594.92 415.082L600.811 409.32C600.281 413.546 599.933 416.857 599.933 418.467C599.933 425.364 602.312 431.84 602.312 434.932C602.418 436.193 602.143 437.456 601.524 438.558C600.904 439.661 599.968 440.552 598.836 441.116ZM606.318 372.858C605.367 378.713 603.428 390.805 601.946 401.197L596.201 404.691C593.048 406.609 589.428 407.621 585.737 407.618H554.233C550.637 407.622 547.105 406.662 544.006 404.837L537.603 401.069C536.103 390.696 534.182 378.676 533.231 372.858C533.171 372.452 533.208 372.038 533.338 371.648C533.468 371.259 533.689 370.906 533.981 370.617C534.273 370.329 534.629 370.113 535.02 369.988C535.411 369.862 535.826 369.831 536.231 369.895C546.975 371.462 557.811 372.305 568.668 372.419C580.268 372.384 591.853 371.54 603.336 369.895C603.741 369.829 604.156 369.86 604.546 369.985C604.937 370.111 605.292 370.328 605.582 370.617C605.873 370.906 606.091 371.26 606.219 371.65C606.347 372.039 606.381 372.453 606.318 372.858Z" fill="#042442" stroke="#042442" stroke-linecap="round" stroke-linejoin="round"/>
<path d="M539.67 358.9L550.519 399.313L558.971 398.106L549.915 360.712L539.67 358.9ZM582.496 396.898L590.344 360.711L601.211 359.485L590.948 399.313L582.496 396.898ZM529.498 424.761L543.896 454.819V468.101L528.199 435.518L529.498 424.761ZM610.268 424.761L595.889 454.819V468.101L611.567 435.518L610.268 424.761Z" fill="#8292A1" stroke="#042442" stroke-linecap="round" stroke-linejoin="round"/>
<path d="M585.172 389.069C585.172 389.069 559.23 387.239 551.382 389.672C543.533 392.106 539.326 398.106 539.929 407.766C540.533 417.425 535.099 454.82 535.703 464.479C536.307 474.139 539.929 480.176 555.608 483.195C571.286 486.213 587.587 485.024 596.643 481.365C605.699 477.706 610.016 463.912 604.473 449.386C598.93 434.86 600.32 412.522 597.905 401.674C595.49 390.825 589.398 389.672 585.172 389.069Z" fill="#44DBB5" stroke="#042442" stroke-linecap="round" stroke-linejoin="round"/>
<path d="M599.808 461.807C599.808 462.027 599.387 467.79 599.332 468.009C595.088 484.127 572.347 481.565 559.742 479.461C553.467 478.419 544.064 475.254 541.631 468.485C538.978 461.167 542.417 452.019 543.735 444.61C544.54 440.018 544.997 425.95 550.193 423.608C555.388 421.266 586.928 417.882 591.703 427.413C597.045 438.134 597.905 449.403 599.808 461.807ZM575.952 400.246H564.023V406.924H575.952V400.246Z" fill="#042442" stroke="#042442" stroke-linecap="round" stroke-linejoin="round"/>
<path d="M545.414 445.123H596.95C597.068 446.997 596.506 448.851 595.367 450.344C594.227 451.836 592.587 452.867 590.748 453.246C583.046 454.893 574.557 454.582 566.745 454.6C559.738 454.582 544.609 455.624 545.414 445.123Z" fill="#042442" stroke="#042442" stroke-linecap="round" stroke-linejoin="round"/>
<path d="M316.824 426.17L334.314 538.243L343.681 538.81L345.894 428.932L316.824 426.17Z" fill="#44DBB5" stroke="#042442" stroke-linecap="round" stroke-linejoin="round"/>
<path d="M334.313 538.243V550.702C334.311 551.204 334.498 551.687 334.837 552.057C335.176 552.426 335.642 552.655 336.142 552.696L343.021 553.062C343.308 553.074 343.594 553.024 343.861 552.914C344.127 552.805 344.366 552.64 344.562 552.43C344.759 552.219 344.907 551.969 344.998 551.696C345.088 551.423 345.119 551.134 345.088 550.848L343.698 538.81L334.313 538.243Z" fill="white" stroke="#042442" stroke-linecap="round" stroke-linejoin="round"/>
<path d="M385.172 426.443L365.743 538.114L356.376 538.48L356.047 428.584L385.172 426.443Z" fill="#44DBB5" stroke="#042442" stroke-linecap="round" stroke-linejoin="round"/>
<path d="M365.745 538.114L365.525 550.573C365.517 551.068 365.326 551.542 364.988 551.904C364.65 552.266 364.189 552.489 363.696 552.53L356.817 552.75C356.529 552.757 356.243 552.703 355.978 552.589C355.713 552.476 355.476 552.306 355.283 552.092C355.09 551.878 354.946 551.625 354.86 551.351C354.774 551.076 354.749 550.785 354.786 550.5L356.433 538.48L365.745 538.114ZM311.318 317.883C311.318 317.883 282.047 374.597 281.224 379.427C280.4 384.256 285.23 391.41 293.609 390.605C301.988 389.8 323.795 389.415 323.795 389.415L324.198 381.823L299.061 378.64L314.227 366.657L311.318 317.883Z" fill="white" stroke="#042442" stroke-linecap="round" stroke-linejoin="round"/>
<path d="M299.059 378.64L296.004 384.622" stroke="#042442" stroke-linecap="round" stroke-linejoin="round"/>
<path d="M390.04 316.658C390.04 316.658 419.531 374.652 420.318 379.427C421.104 384.202 416.329 391.41 407.951 390.605C399.572 389.8 379.996 389.416 379.996 389.416L379.594 381.824L393.187 378.641L384.607 366.731L390.04 316.658Z" fill="white" stroke="#042442" stroke-linecap="round" stroke-linejoin="round"/>
<path d="M393.188 378.641L405.555 384.623" stroke="#042442" stroke-linecap="round" stroke-linejoin="round"/>
<path d="M339.124 302.955L319.915 313.109C310.31 318.195 311.865 315.341 311.316 317.884C310.767 320.427 314.554 408.534 314.554 408.534C314.554 408.534 321.872 415.687 341.1 417.571C369.914 420.389 382.336 411.351 382.336 411.351C382.336 411.351 389.654 322.183 389.654 319.073C389.654 315.963 377.762 309.925 370.133 306.267C362.505 302.608 354.089 299.552 339.124 302.955Z" fill="white" stroke="#042442" stroke-linecap="round" stroke-linejoin="round"/>
<path d="M314.552 408.534C314.552 408.534 312.009 436.78 312.85 440.439C313.692 444.098 322.455 450.044 340.292 450.611C358.13 451.178 380.394 452.02 385.755 445.525C391.115 439.031 382.37 411.351 382.37 411.351C382.37 411.351 334.877 415.339 314.552 408.534Z" fill="#44DBB5" stroke="#042442" stroke-linecap="round" stroke-linejoin="round"/>
<path d="M352.368 247.65C352.368 247.65 343.221 242.162 333.562 252.663C323.902 263.164 333.982 284.02 335.226 289.033C336.47 294.045 318.523 322.548 318.523 335.355C318.523 348.161 334.074 360.967 358.662 358.424C383.25 355.881 386.25 342.947 382.902 327.488C379.554 312.029 375.786 295.71 375.786 289.069C375.786 282.428 381.64 267.335 376.206 252.699C370.773 238.064 357.4 242.217 352.368 247.65Z" fill="#042442" stroke="#042442" stroke-linecap="round" stroke-linejoin="round"/>
<path d="M339.015 291.539L350.303 302.406C350.303 302.406 338.594 330.415 337.332 337.934C336.069 345.454 342.82 352.57 351.967 351.729C361.115 350.887 367.024 342.947 366.603 336.27C366.182 329.592 359.487 301.985 359.487 301.985C365.264 298.968 370.162 294.506 373.701 289.033" stroke="#808080" stroke-linecap="round" stroke-linejoin="round"/>
<path d="M350.305 302.424C350.305 302.424 350.726 299.496 359.452 302.002" stroke="#042442" stroke-linecap="round" stroke-linejoin="round"/>
<path d="M314.131 552.019C313.609 551.977 313.123 551.731 312.781 551.334C312.438 550.936 312.266 550.42 312.301 549.897L318.101 443.092L324.76 443.641L316.253 550.208C316.211 550.729 315.964 551.212 315.567 551.552C315.169 551.891 314.653 552.059 314.131 552.019ZM385.939 552.019C386.33 551.99 386.704 551.846 387.013 551.605C387.323 551.364 387.553 551.037 387.676 550.665C387.757 550.417 387.788 550.156 387.768 549.897L381.987 443.092L375.328 443.641L383.835 550.208C383.879 550.725 384.123 551.205 384.517 551.544C384.91 551.883 385.421 552.053 385.939 552.019Z" fill="#042442" stroke="#042442" stroke-linecap="round" stroke-linejoin="round"/>
<path d="M392.763 359.028C377.87 361.178 362.844 362.284 347.795 362.339C333.711 362.191 319.652 361.085 305.717 359.028C305.188 358.946 304.646 358.99 304.137 359.157C303.628 359.325 303.165 359.61 302.787 359.989C302.409 360.369 302.126 360.833 301.961 361.343C301.797 361.853 301.755 362.395 301.839 362.924C303.998 376.408 310.126 415.247 310.126 422.693C310.126 431.731 307.016 440.201 307.016 444.153C307.016 448.104 308.718 451.214 311.535 452.349C312.834 452.861 327.634 452.897 347.649 452.788C370.828 452.897 385.628 452.788 386.946 452.349C389.763 451.214 391.464 448.104 391.464 444.153C391.464 440.201 388.354 431.731 388.354 422.693C388.354 415.247 394.483 376.408 396.642 362.924C396.731 362.394 396.692 361.851 396.528 361.339C396.365 360.827 396.082 360.362 395.702 359.981C395.324 359.6 394.859 359.315 394.348 359.149C393.837 358.983 393.294 358.942 392.763 359.028ZM378.274 441.774C377.268 442.177 365.852 442.195 347.996 442.122C332.574 442.122 321.158 442.122 320.152 441.774C319.007 441.206 318.062 440.304 317.441 439.187C316.82 438.07 316.554 436.79 316.676 435.518C316.676 432.499 319.073 426.041 319.073 419.144C319.073 417.516 318.688 413.93 318.103 409.411L323.756 415.522C324.529 416.357 325.465 417.024 326.506 417.481C327.549 417.937 328.674 418.173 329.811 418.174H368.596C370.735 418.178 372.791 417.344 374.322 415.851L380.213 410.106C379.683 414.314 379.335 417.625 379.335 419.254C379.335 426.151 381.732 432.609 381.732 435.627C381.833 436.88 381.558 438.134 380.942 439.229C380.326 440.324 379.397 441.21 378.274 441.774ZM385.757 373.517C384.805 379.371 382.884 391.464 381.384 401.855L375.658 405.35C372.501 407.276 368.874 408.295 365.175 408.295H333.672C330.075 408.293 326.543 407.326 323.445 405.496L317.042 401.727C315.542 391.373 313.621 379.353 312.688 373.517C312.591 372.903 312.718 372.274 313.046 371.746C313.373 371.217 313.879 370.824 314.472 370.637C314.865 370.513 315.282 370.484 315.688 370.553C326.425 372.127 337.256 372.976 348.106 373.096C359.738 373.048 371.352 372.199 382.866 370.553C383.264 370.504 383.668 370.547 384.046 370.68C384.425 370.813 384.767 371.031 385.047 371.318C385.327 371.605 385.537 371.953 385.66 372.334C385.783 372.716 385.817 373.121 385.757 373.517Z" fill="#042442" stroke="#042442" stroke-linecap="round" stroke-linejoin="round"/>
<path d="M171.363 301.272V286.032H193.097V302.406L171.363 301.272ZM160.623 266.548C160.623 266.548 157.238 265.688 157.238 271.067C157.238 276.446 161.757 280.086 163.44 279.812C165.123 279.537 162.599 269.366 162.324 267.39C162.05 265.414 160.623 266.548 160.623 266.548ZM202.993 266.548C202.993 266.548 206.396 265.688 206.396 271.067C206.396 276.446 201.877 280.086 200.176 279.812C198.474 279.537 201.017 269.366 201.31 267.39C201.603 265.414 202.993 266.548 202.993 266.548Z" fill="white" stroke="#042442" stroke-linecap="round" stroke-linejoin="round"/>
<path d="M175.587 239.71C175.587 239.71 165.983 241.118 162.031 249.589C158.079 258.059 160.915 269.932 162.324 276.701C163.732 283.47 169.386 289.983 173.612 291.337C177.838 292.691 190.845 291.337 190.845 291.337C194.074 288.076 196.833 284.382 199.041 280.36C202.993 273.299 203.56 260.017 201.859 252.406C200.157 244.796 194.23 237.148 189.711 236.581C185.192 236.014 180.966 240.24 180.966 240.24C179.289 239.445 177.387 239.258 175.587 239.71Z" fill="#042442" stroke="#042442" stroke-linecap="round" stroke-linejoin="round"/>
<path d="M196.204 298.454C196.204 298.454 179.739 295.911 172.421 297.045C165.103 298.18 160.566 307.199 160.566 307.199C166.507 305.428 172.663 304.48 178.861 304.382C186.508 304.555 194.141 305.123 201.729 306.083C200.372 303.222 198.499 300.636 196.204 298.454ZM134.369 325.273C134.369 325.273 103.249 374.395 102.463 379.261C101.676 384.127 106.451 391.244 114.83 390.439C123.21 389.634 154.347 389.25 154.347 389.25L154.731 381.658L129.594 378.474L144.76 366.455L134.369 325.273Z" fill="white" stroke="#042442" stroke-linecap="round" stroke-linejoin="round"/>
<path d="M129.595 378.383L117.227 384.365" stroke="#042442" stroke-linecap="round" stroke-linejoin="round"/>
<path d="M230.107 323.298C230.107 323.298 261.61 374.395 262.415 379.17C263.22 383.945 258.427 391.153 250.03 390.348C241.632 389.543 210.531 389.159 210.531 389.159L210.129 381.567L235.284 378.383L220.099 366.455L230.107 323.298Z" fill="white" stroke="#042442" stroke-linecap="round" stroke-linejoin="round"/>
<path d="M235.266 378.383L247.651 384.365" stroke="#042442" stroke-linecap="round" stroke-linejoin="round"/>
<path d="M169.661 302.68L150.452 312.852C140.866 317.938 134.92 322.731 134.371 325.274C133.822 327.817 145.092 408.314 145.092 408.314C145.092 408.314 152.41 415.449 171.637 417.351C200.451 420.169 212.873 411.131 212.873 411.131C212.873 411.131 230.107 326.409 230.107 323.317C230.107 320.225 208.355 309.742 200.726 306.083C193.097 302.424 184.626 299.296 169.661 302.68Z" fill="white" stroke="#042442" stroke-linecap="round" stroke-linejoin="round"/>
<path d="M128.719 431.749L162.326 539.156L171.638 538.041L157.807 429.206L128.719 431.749Z" fill="#5DCFE8" stroke="#042442" stroke-linecap="round" stroke-linejoin="round"/>
<path d="M162.324 539.157L164.52 551.432C164.613 551.933 164.895 552.378 165.307 552.677C165.718 552.977 166.228 553.107 166.733 553.042L173.557 552.164C173.842 552.127 174.116 552.028 174.359 551.874C174.601 551.719 174.807 551.514 174.962 551.271C175.117 551.029 175.217 550.756 175.255 550.471C175.294 550.186 175.27 549.896 175.185 549.621L171.636 538.041L162.324 539.157Z" fill="white" stroke="#042442" stroke-linecap="round" stroke-linejoin="round"/>
<path d="M232.322 431.749L198.714 539.156L189.402 538.041L203.233 429.206L232.322 431.749Z" fill="#5DCFE8" stroke="#042442" stroke-linecap="round" stroke-linejoin="round"/>
<path d="M198.696 539.157L196.5 551.432C196.407 551.932 196.126 552.378 195.714 552.678C195.303 552.977 194.792 553.108 194.287 553.042L187.463 552.164C187.178 552.127 186.904 552.028 186.661 551.874C186.419 551.719 186.213 551.514 186.058 551.271C185.903 551.029 185.803 550.756 185.764 550.471C185.725 550.186 185.749 549.896 185.834 549.621L189.384 538.041L198.696 539.157Z" fill="white" stroke="#042442" stroke-linecap="round" stroke-linejoin="round"/>
<path d="M173.908 419.033C173.908 419.033 143.118 409.446 137.465 412.191C131.812 414.935 126.177 422.362 128.153 430.485C130.129 438.608 147.07 448.56 150.747 448.78C154.424 448.999 174.183 448.78 174.183 448.78L173.908 419.033ZM189.037 419.033C189.037 419.033 219.809 409.447 225.462 412.264C231.115 415.081 236.768 422.436 234.774 430.559C232.779 438.681 215.857 448.634 212.18 448.853C208.502 449.073 188.744 448.853 188.744 448.853L189.037 419.033Z" fill="#5DCFE8" stroke="#042442" stroke-linecap="round" stroke-linejoin="round"/>
<path d="M145.091 408.312C145.091 408.312 142.548 436.56 143.389 440.219C144.231 443.878 152.994 449.823 170.831 450.391C188.669 450.958 210.933 451.799 216.294 445.305C221.654 438.81 212.909 411.13 212.909 411.13C212.909 411.13 165.435 415.082 145.091 408.312Z" fill="#5DCFE8" stroke="#042442" stroke-linecap="round" stroke-linejoin="round"/>
<path d="M144.687 551.762C144.428 551.744 144.174 551.675 143.941 551.558C143.708 551.441 143.501 551.279 143.331 551.081C143.161 550.884 143.032 550.655 142.95 550.408C142.869 550.161 142.837 549.9 142.857 549.64L148.638 442.836L155.298 443.385L146.809 549.951C146.768 550.472 146.521 550.956 146.123 551.295C145.725 551.635 145.209 551.803 144.687 551.762ZM216.476 551.762C216.736 551.744 216.99 551.675 217.223 551.558C217.456 551.441 217.663 551.279 217.832 551.081C218.175 550.682 218.345 550.164 218.306 549.64L212.524 442.836L205.865 443.385L214.372 549.951C214.415 550.469 214.659 550.949 215.053 551.288C215.447 551.627 215.958 551.797 216.476 551.762Z" fill="#042442" stroke="#042442" stroke-linecap="round" stroke-linejoin="round"/>
<path d="M223.245 358.771C208.345 360.922 193.312 362.028 178.258 362.082C164.174 361.927 150.116 360.821 136.181 358.771C135.65 358.687 135.107 358.73 134.596 358.896C134.085 359.063 133.62 359.347 133.24 359.727C132.86 360.107 132.575 360.572 132.409 361.083C132.243 361.594 132.2 362.137 132.284 362.668C134.443 376.151 140.571 414.991 140.571 422.437C140.571 431.474 137.461 439.944 137.461 443.896C137.461 447.848 139.163 450.958 141.98 452.092C143.297 452.604 158.098 452.641 178.112 452.531C201.273 452.641 216.092 452.531 217.391 452.092C220.208 450.958 221.909 447.848 221.909 443.896C221.909 439.944 218.799 431.474 218.799 422.437C218.799 414.991 224.928 376.133 227.087 362.65C227.174 362.124 227.135 361.586 226.974 361.078C226.812 360.57 226.532 360.108 226.157 359.729C225.782 359.35 225.323 359.066 224.816 358.899C224.31 358.733 223.772 358.689 223.245 358.771ZM208.755 441.463C207.749 441.847 196.333 441.884 178.459 441.811C163.037 441.811 151.64 441.811 150.633 441.463C149.485 440.897 148.536 439.996 147.912 438.878C147.288 437.761 147.019 436.48 147.139 435.206C147.139 432.188 149.536 425.73 149.536 418.832C149.536 417.204 149.151 413.618 148.566 409.1L154.219 415.21C154.992 416.044 155.929 416.71 156.971 417.166C158.013 417.623 159.137 417.86 160.275 417.863H199.059C201.216 417.868 203.287 417.019 204.822 415.503L210.731 409.758C210.182 413.966 209.835 417.277 209.835 418.906C209.835 425.803 212.231 432.261 212.231 435.279C212.338 436.54 212.064 437.803 211.444 438.906C210.824 440.009 209.887 440.9 208.755 441.463ZM216.22 373.206C215.287 379.06 213.347 391.153 211.847 401.544L206.121 405.038C202.962 406.958 199.335 407.971 195.638 407.965H164.135C160.545 407.966 157.02 407.006 153.926 405.185L147.468 401.471C145.986 391.098 144.066 379.096 143.114 373.26C143.054 372.854 143.091 372.439 143.222 372.05C143.352 371.661 143.572 371.307 143.864 371.019C144.156 370.73 144.512 370.515 144.903 370.389C145.294 370.264 145.709 370.232 146.115 370.297C156.864 371.865 167.707 372.708 178.569 372.821C190.2 372.788 201.815 371.945 213.329 370.297C213.727 370.247 214.131 370.29 214.509 370.422C214.888 370.555 215.23 370.774 215.51 371.061C215.79 371.348 215.999 371.696 216.123 372.078C216.246 372.459 216.279 372.864 216.22 373.26V373.206Z" fill="#042442" stroke="#042442" stroke-linecap="round" stroke-linejoin="round"/>
</g>
<defs>
<clipPath id="clip0_2_652">
<rect width="803" height="555" fill="white" transform="translate(27.5 0.5)"/>
</clipPath>
</defs>
</svg>
