<svg width="25" height="25" viewBox="0 0 25 25" fill="none" xmlns="http://www.w3.org/2000/svg">
<path d="M24.1094 2.17188C24.625 2.3125 25 2.73438 25 3.25C25 15.2969 15.25 25 3.25 25C2.6875 25 2.26562 24.6719 2.125 24.1562L1 19.2812C0.90625 18.7656 1.14062 18.2031 1.65625 17.9688L6.90625 15.7188C7.375 15.5312 7.89062 15.6719 8.21875 16.0469L10.5625 18.9062C14.2188 17.1719 17.1719 14.1719 18.8594 10.6094L16 8.26562C15.625 7.9375 15.4844 7.42188 15.6719 6.95312L17.9219 1.70312C18.1562 1.1875 18.7188 0.90625 19.2344 1.04688L24.1094 2.17188Z" fill="white"/>
</svg>
