<svg width="20" height="21" viewBox="0 0 20 21" fill="none" xmlns="http://www.w3.org/2000/svg">
<g clip-path="url(#clip0_933_1371)">
<path d="M11.0276 0.135996C11.7573 0.133196 12.4871 0.14053 13.2166 0.157996L13.4106 0.164996C13.6346 0.172996 13.8556 0.182996 14.1226 0.194996C15.1866 0.244996 15.9126 0.412996 16.5496 0.659996C17.2096 0.913996 17.7656 1.258 18.3216 1.814C18.83 2.3136 19.2234 2.91794 19.4746 3.585C19.7216 4.222 19.8896 4.949 19.9396 6.013C19.9516 6.279 19.9616 6.501 19.9696 6.725L19.9756 6.919C19.9934 7.64819 20.001 8.37759 19.9986 9.107L19.9996 9.853V11.163C20.0021 11.8927 19.9944 12.6225 19.9766 13.352L19.9706 13.546C19.9626 13.77 19.9526 13.991 19.9406 14.258C19.8906 15.322 19.7206 16.048 19.4746 16.685C19.2242 17.3528 18.8307 17.9576 18.3216 18.457C17.8216 18.9653 17.2169 19.3587 16.5496 19.61C15.9126 19.857 15.1866 20.025 14.1226 20.075C13.8556 20.087 13.6346 20.097 13.4106 20.105L13.2166 20.111C12.4871 20.1288 11.7573 20.1364 11.0276 20.134L10.2816 20.135H8.9726C8.24286 20.1375 7.51313 20.1298 6.7836 20.112L6.5896 20.106C6.35221 20.0974 6.11487 20.0874 5.8776 20.076C4.8136 20.026 4.0876 19.856 3.4496 19.61C2.78228 19.3593 2.17784 18.9658 1.6786 18.457C1.16965 17.9573 0.775825 17.3526 0.524601 16.685C0.277601 16.048 0.1096 15.322 0.0596004 14.258C0.0484633 14.0207 0.0384632 13.7834 0.0296004 13.546L0.0246005 13.352C0.00616412 12.6225 -0.00217011 11.8927 -0.000399562 11.163V9.107C-0.00319053 8.3776 0.00414359 7.64819 0.0216005 6.919L0.0286005 6.725C0.0366005 6.501 0.0466005 6.279 0.0586005 6.013C0.1086 4.948 0.2766 4.223 0.5236 3.585C0.774973 2.91762 1.16956 2.31344 1.6796 1.815C2.17849 1.30575 2.78256 0.911569 3.4496 0.659996C4.0876 0.412996 4.8126 0.244996 5.8776 0.194996L6.5896 0.164996L6.7836 0.159996C7.51278 0.141569 8.24219 0.133235 8.9716 0.134996L11.0276 0.135996ZM9.9996 5.136C9.33711 5.12663 8.67936 5.24902 8.06458 5.49606C7.4498 5.74311 6.89025 6.10987 6.41845 6.57505C5.94664 7.04023 5.572 7.59453 5.31629 8.20576C5.06057 8.81698 4.92889 9.47294 4.92889 10.1355C4.92889 10.7981 5.06057 11.454 5.31629 12.0652C5.572 12.6765 5.94664 13.2308 6.41845 13.6959C6.89025 14.1611 7.4498 14.5279 8.06458 14.7749C8.67936 15.022 9.33711 15.1444 9.9996 15.135C11.3257 15.135 12.5975 14.6082 13.5351 13.6705C14.4728 12.7328 14.9996 11.4611 14.9996 10.135C14.9996 8.80891 14.4728 7.53714 13.5351 6.59946C12.5975 5.66178 11.3257 5.136 9.9996 5.136ZM9.9996 7.136C10.3981 7.12865 10.7941 7.20079 11.1644 7.3482C11.5347 7.49561 11.8719 7.71534 12.1564 7.99454C12.4408 8.27374 12.6668 8.60683 12.821 8.97434C12.9753 9.34185 13.0548 9.73641 13.0549 10.135C13.0549 10.5336 12.9756 10.9282 12.8214 11.2957C12.6673 11.6633 12.4414 11.9964 12.1571 12.2757C11.8727 12.555 11.5356 12.7749 11.1653 12.9224C10.7951 13.0699 10.3991 13.1422 10.0006 13.135C9.20495 13.135 8.44189 12.8189 7.87928 12.2563C7.31667 11.6937 7.0006 10.9306 7.0006 10.135C7.0006 9.33935 7.31667 8.57628 7.87928 8.01368C8.44189 7.45107 9.20495 7.135 10.0006 7.135L9.9996 7.136ZM15.2496 3.636C14.927 3.64891 14.6219 3.78615 14.3982 4.01897C14.1745 4.25179 14.0496 4.56213 14.0496 4.885C14.0496 5.20786 14.1745 5.5182 14.3982 5.75102C14.6219 5.98385 14.927 6.12108 15.2496 6.134C15.5811 6.134 15.8991 6.0023 16.1335 5.76788C16.3679 5.53346 16.4996 5.21552 16.4996 4.884C16.4996 4.55248 16.3679 4.23453 16.1335 4.00011C15.8991 3.76569 15.5811 3.634 15.2496 3.634V3.636Z" fill="white"/>
</g>
<defs>
<clipPath id="clip0_933_1371">
<rect width="20" height="20.0007" fill="white" transform="translate(0 0.134766)"/>
</clipPath>
</defs>
</svg>
