<svg width="88" height="88" viewBox="0 0 88 88" fill="none" xmlns="http://www.w3.org/2000/svg">
<path d="M37.7524 2.99205C27.1924 5.98405 17.4244 13.816 11.5284 24.0241C5.10443 35.3761 0.88043 54.1201 0.61643 73.0401L0.44043 84.0401L3.52043 83.9521C5.19243 83.8641 12.1444 83.5121 18.9204 83.1601L31.2404 82.4561L34.6724 84.7441C36.5204 86.0641 39.4244 87.3841 41.1844 87.6481C45.0564 88.3521 51.2164 86.8561 54.8244 84.3041C57.2884 82.5441 57.9924 82.5441 69.4324 83.1601C89.6724 84.3041 87.5604 84.6561 87.8244 80.0801C88.0004 77.9681 87.6484 72.8641 87.0324 68.6401C86.4164 64.5041 85.9764 57.9921 86.1524 54.1201C86.3284 48.0481 86.0644 46.7281 84.5684 44.7041C83.5124 43.4721 82.7204 41.2721 82.7204 39.8641C82.7204 36.0801 80.3444 27.8081 77.8804 22.8801C73.8324 14.9601 65.9124 9.06405 57.0244 7.48005C54.3844 6.95205 53.6804 6.42405 53.2404 4.31205C52.7124 1.84805 52.5364 1.76005 47.2564 1.84805C44.2644 1.84805 39.9524 2.37605 37.7524 2.99205ZM50.6884 7.65605C51.3924 9.59205 52.2724 10.12 57.1124 11.0881C68.9924 13.552 76.2084 22.176 78.8484 37.1361C79.3764 40.3921 79.3764 40.3921 75.9444 40.6561C73.2164 40.8321 72.5124 41.2721 72.3364 42.8561C72.1604 44.0001 71.4564 44.8801 70.8404 44.8801C69.1684 44.8801 61.3364 33.7921 57.3764 25.6961C55.6164 22.2641 53.6804 19.3601 53.0644 19.3601C52.4484 19.3601 51.3044 20.6801 50.5124 22.176C44.3524 34.2321 30.9764 44.3521 19.8004 45.4961C14.1684 46.1121 12.3204 47.8721 12.3204 52.6241C12.3204 55.3521 15.4004 59.7521 18.1284 60.8081C18.5684 60.9841 19.8884 63.2721 21.0324 65.9121C22.1764 68.5521 24.2004 72.5121 25.6084 74.7121L28.0724 78.7601L19.5364 79.3761C14.8724 79.7281 9.24043 80.1681 7.12843 80.3441L3.25643 80.7841L3.87243 71.3681C5.63243 44.7041 10.8244 28.3361 21.0324 17.3361C28.0724 9.85605 37.1364 5.54405 46.2884 5.36805C49.3684 5.28005 49.8964 5.54405 50.6884 7.65605ZM55.6164 30.6241C60.0164 38.4561 66.8804 47.4321 69.2564 48.5761C73.4804 50.5121 72.9524 56.6721 68.5524 57.3761C67.2324 57.5521 66.2644 59.2241 64.6804 63.8001C63.4484 67.1441 62.4804 70.0481 62.4804 70.1361C62.4804 70.3121 63.2724 70.4001 64.1524 70.4001C65.7364 70.4001 68.6404 65.0321 68.6404 62.0401C68.6404 61.3361 68.8164 60.7201 68.9924 60.7201C69.1684 60.7201 69.9604 60.4561 70.7524 60.1921C71.7204 59.8401 72.1604 60.1041 72.1604 61.1601C72.1604 61.9521 72.9524 62.8321 73.9204 63.0961C76.0324 63.6241 76.1204 64.4161 74.4484 67.6721C72.6004 71.1921 69.5204 72.1601 60.7204 72.1601C53.9444 72.1601 52.5364 71.8961 51.0404 70.4001C47.2564 66.6161 38.7204 69.0801 38.7204 73.9201C38.7204 78.7601 47.2564 81.2241 51.0404 77.4401C52.5364 75.9441 53.9444 75.6801 60.7204 75.6801C72.1604 75.6801 76.1204 73.6561 78.5844 66.3521C79.9924 62.3921 82.2804 61.4241 82.9844 64.4161C83.2484 65.5601 83.7764 69.6081 84.0404 73.4801L84.6564 80.5201L72.7764 79.7281C66.1764 79.2881 60.9844 78.5841 61.2484 78.1441C62.4804 76.2081 57.5524 77.7921 53.5924 80.6961C42.2404 88.7921 32.4724 83.2481 23.9364 63.8881C22.4404 60.3681 20.5924 57.4641 19.6244 57.1121C17.1604 56.2321 15.6644 54.0321 16.0164 51.7441C16.2804 50.0721 16.9844 49.6321 21.1204 49.0161C28.5124 47.9601 36.3444 43.9121 42.7684 37.6641C45.9364 34.6721 49.2804 30.8881 50.2484 29.3041C51.2164 27.7201 52.3604 26.4001 52.6244 26.4001C52.9764 26.4001 54.2964 28.2481 55.6164 30.6241ZM80.9604 45.7601C82.2804 47.0801 82.7204 48.6641 82.7204 51.9201C82.7204 56.7601 80.6964 59.8401 77.4404 59.8401C75.7684 59.8401 75.6804 59.2241 75.6804 51.9201C75.6804 44.6161 75.7684 44.0001 77.4404 44.0001C78.4084 44.0001 79.9924 44.7921 80.9604 45.7601ZM48.8404 73.9201C48.8404 75.5041 44.2644 76.2961 42.9444 74.9761C41.4484 73.4801 43.1204 72.0721 46.0244 72.3361C47.7844 72.5121 48.8404 73.0401 48.8404 73.9201Z" fill="black"/>
</svg>
