<svg width="40" height="52" viewBox="0 0 40 52" fill="none" xmlns="http://www.w3.org/2000/svg">
<path d="M21.3239 50.3378L21.3102 50.3481L21.2971 50.3594C20.9346 50.6743 20.4745 50.8463 20 50.8463C19.5255 50.8463 19.0654 50.6743 18.7029 50.3594L18.7012 50.358C18.3056 50.0099 13.7548 46.0054 9.29849 40.3682C4.8082 34.688 0.501042 27.4569 0.5 20.684C0.552056 15.4636 2.63092 10.4763 6.28258 6.80557C9.93457 3.13448 14.8643 1.07667 20 1.07693H20C25.1357 1.07667 30.0654 3.13448 33.7174 6.80557C37.3691 10.4764 39.448 15.4636 39.5 20.6841C39.4989 27.458 35.2218 34.6895 30.7479 40.3689C26.2857 46.0331 21.722 50.0375 21.3239 50.3378ZM14.858 27.4164C16.3794 28.4486 18.1688 29 20 29C22.4557 29 24.8093 28.0094 26.5434 26.2486C28.2773 24.4881 29.25 22.1019 29.25 19.6154C29.25 17.761 28.7085 15.9476 27.693 14.4045C26.6776 12.8613 25.2334 11.6574 23.5423 10.9462C21.8512 10.2349 19.9898 10.0487 18.194 10.4114C16.3982 10.7741 14.7497 11.6692 13.4566 12.9822C12.1635 14.2951 11.2838 15.967 10.9275 17.786C10.5711 19.6049 10.7539 21.4904 11.4531 23.2042C12.1523 24.9182 13.3368 26.3843 14.858 27.4164Z" fill="#F14B4B" stroke="#C22727"/>
</svg>
