<svg width="37" height="41" viewBox="0 0 37 41" fill="none" xmlns="http://www.w3.org/2000/svg">
<path d="M15.779 1.02195C14.3085 1.92057 12.8789 4.00372 11.8169 6.78124L11.0817 8.66016L9.61124 8.33339C5.93509 7.47563 2.42234 8.12916 0.788494 9.96723C-0.845346 11.8053 0.134958 15.8899 3.03503 19.1984L4.30125 20.628L3.03503 22.0577C0.134958 25.3662 -0.845346 29.4508 0.788494 31.2889C2.42234 33.1269 5.93509 33.7805 9.61124 32.9227L11.0817 32.5959L11.8169 34.4748C15.1254 43.1751 21.089 43.1751 24.3975 34.4748L25.1327 32.5959L26.6032 32.9227C30.2793 33.7805 33.7921 33.1269 35.4259 31.2889C37.0598 29.4508 36.0795 25.3662 33.1794 22.0577L31.9132 20.628L33.1794 19.1984C36.0795 15.8899 37.0598 11.8053 35.4259 9.96723C33.7921 8.12916 30.2793 7.47563 26.6032 8.33339L25.1327 8.66016L24.3975 6.78124C22.8453 2.69664 20.4763 0.205032 18.1072 0.205032C17.5354 0.205032 16.5142 0.572647 15.779 1.02195ZM20.0678 2.86002C21.1707 3.79948 22.5186 6.08686 23.1721 8.21085C23.3763 8.94608 23.0904 9.19116 20.7622 10.0898L18.1072 11.1518L15.4522 10.0898C12.5113 8.94608 12.5113 9.02777 14.1043 5.59671C15.0438 3.67694 16.9635 1.83887 18.1072 1.83887C18.5157 1.83887 19.4143 2.28818 20.0678 2.86002ZM9.24362 9.8447L10.7549 10.1306L10.5098 12.2138C10.0605 15.5631 9.85631 15.9716 7.56893 17.728L5.44494 19.4435L4.38294 18.2998C3.8111 17.6871 2.87164 16.1758 2.2998 14.9913C1.40118 13.1124 1.36034 12.6631 1.7688 11.6419C2.50403 9.8447 5.19986 9.19116 9.24362 9.8447ZM32.7301 10.0489C33.4653 10.294 34.1597 10.9475 34.4456 11.6419C34.8541 12.6631 34.8132 13.1124 33.9146 14.9913C33.3428 16.1758 32.4033 17.6871 31.8315 18.2998L30.7695 19.4435L28.6455 17.728C26.3581 15.9308 26.1539 15.5631 25.7046 12.1729C25.4595 10.0898 25.4595 10.0489 26.5623 9.88554C28.8497 9.55877 31.5047 9.59962 32.7301 10.0489ZM15.2071 11.7236C16.1874 12.0912 16.1466 12.1321 14.186 13.2349C12.2662 14.3786 12.1845 14.3786 12.062 13.6025C11.9803 13.1532 12.0212 12.3363 12.1845 11.7645C12.4296 10.7433 12.593 10.7433 15.2071 11.7236ZM23.989 11.4785C24.1116 11.8462 24.2341 12.6631 24.2341 13.3166V14.5011L22.2327 13.3983C21.1298 12.7448 20.3129 12.1729 20.4354 12.0504C20.6397 11.8462 23.0087 10.9067 23.458 10.8658C23.6214 10.825 23.8665 11.1109 23.989 11.4785ZM21.6608 14.9913L24.6426 16.7068V20.628V24.5493L21.6608 26.2648C20.027 27.2043 18.434 27.9803 18.1072 27.9803C17.7804 27.9803 16.1874 27.2043 14.5536 26.2648L11.5718 24.5493V20.628V16.7068L14.5536 14.9913C16.1466 14.0518 17.7804 13.2758 18.0664 13.2758C18.3931 13.2758 20.027 14.0518 21.6608 14.9913ZM9.85631 21.9351L9.73377 23.2422L8.30416 21.9351L6.87455 20.628L8.30416 19.321L9.73377 18.0139L9.85631 19.321C9.938 20.0562 9.938 21.1999 9.85631 21.9351ZM28.4821 19.7703C29.2582 20.628 29.2582 20.628 28.4821 21.4858C28.0736 21.9351 27.3793 22.507 27.0116 22.7112C26.3581 23.0788 26.2764 22.8746 26.2764 20.628C26.2764 18.3815 26.3581 18.1773 27.0116 18.5449C27.3793 18.7491 28.0736 19.321 28.4821 19.7703ZM7.60978 23.5281C9.85631 25.2845 10.0605 25.693 10.5098 29.0423L10.7549 31.1255L9.24362 31.4114C5.19986 32.0649 2.50403 31.4114 1.7688 29.6142C1.36034 28.6339 1.44203 28.1437 2.13641 26.5507C2.8308 24.9986 4.8731 22.0168 5.36325 21.8943C5.40409 21.8534 6.42525 22.6295 7.60978 23.5281ZM31.8315 22.9563C32.4033 23.6098 33.3428 25.0803 33.9146 26.2648C34.8132 28.1437 34.8541 28.593 34.4456 29.6142C33.7104 31.4114 31.0146 32.0649 26.9708 31.4114L25.4595 31.1255L25.7046 29.0423C26.1539 25.7338 26.3581 25.3253 28.5229 23.569C29.6666 22.6703 30.6061 21.8943 30.6878 21.8943C30.7695 21.8534 31.2596 22.3436 31.8315 22.9563ZM15.7381 29.2466C15.5748 29.4099 14.8395 29.6959 14.0635 29.9818C12.3888 30.5128 11.9803 30.1452 11.9803 28.1029V26.7549L13.9818 27.8986C15.1254 28.5113 15.9015 29.124 15.7381 29.2466ZM24.0299 29.4916C23.7848 30.5128 23.6214 30.5128 21.0073 29.5325C20.027 29.1649 20.0678 29.124 22.0284 28.0212C23.9482 26.8775 24.0299 26.8775 24.1524 27.6536C24.2341 28.1029 24.1933 28.9198 24.0299 29.4916ZM21.2932 31.3297C23.6623 32.2692 23.6623 32.2692 22.1101 35.6594C21.1707 37.5791 19.2509 39.4172 18.1072 39.4172C16.9635 39.4172 15.0438 37.5791 14.1043 35.6594C12.5113 32.2283 12.5113 32.31 15.3297 31.1663C16.7593 30.5945 18.1889 30.186 18.5157 30.3086C18.8424 30.4311 20.1087 30.8804 21.2932 31.3297Z" fill="#0079C1"/>
</svg>
