<svg width="20" height="21" viewBox="0 0 20 21" fill="none" xmlns="http://www.w3.org/2000/svg">
<g clip-path="url(#clip0_933_1380)">
<path d="M17.0255 5.21808C16.1025 5.01511 15.2675 4.52497 14.6403 3.81798C14.0131 3.111 13.6261 2.22351 13.5347 1.28289V0.875488H10.3402V13.5329C10.3409 14.0945 10.1648 14.6421 9.83694 15.0981C9.50908 15.5541 9.04604 15.8954 8.51344 16.0737C7.98083 16.2519 7.40565 16.258 6.86938 16.0911C6.3331 15.9243 5.86291 15.5929 5.52542 15.144C5.22305 14.7467 5.03791 14.2725 4.99091 13.7754C4.94391 13.2783 5.03694 12.778 5.25947 12.331C5.48201 11.8841 5.82516 11.5082 6.25015 11.2461C6.67513 10.984 7.16499 10.846 7.66431 10.8477C7.94045 10.8461 8.21523 10.8867 8.47912 10.9681V7.72733C8.17202 7.68931 7.86255 7.67384 7.5532 7.68105C6.41366 7.71149 5.30775 8.07358 4.37086 8.72296C3.43399 9.37235 2.7068 10.2808 2.27835 11.3372C1.84992 12.3935 1.73882 13.5519 1.95867 14.6704C2.17852 15.789 2.71977 16.8191 3.51615 17.6348C4.33235 18.4645 5.3768 19.033 6.5168 19.2679C7.6568 19.5028 8.8409 19.3934 9.91862 18.9538C10.9963 18.5142 11.9191 17.7641 12.5696 16.7989C13.22 15.8337 13.5688 14.6969 13.5717 13.5329V7.05141C14.8601 7.97174 16.405 8.46405 17.9883 8.45882V5.31067C17.6773 5.31196 17.367 5.28092 17.0625 5.21808H17.0255Z" fill="white"/>
</g>
<defs>
<clipPath id="clip0_933_1380">
<rect width="20" height="20" fill="white" transform="translate(0 0.134766)"/>
</clipPath>
</defs>
</svg>
